<?xml version="1.0" encoding="utf-8"?>
<!-- Generator: Adobe Illustrator 22.1.0, SVG Export Plug-In . SVG Version: 6.00 Build 0)  -->
<svg version="1.1" id="Layer_15" xmlns="http://www.w3.org/2000/svg" xmlns:xlink="http://www.w3.org/1999/xlink" x="0px" y="0px"
	 viewBox="0 0 34.8 34.8" style="enable-background:new 0 0 34.8 34.8;" xml:space="preserve">
<style type="text/css">
	.st0{fill:#5E5E5E;}
</style>
<g id="OjVUBi.tif">
	<g>
		<path class="st0" d="M0,25.3c0.1-0.1,0.2-0.1,0.3-0.2c6.2-6.2,12.4-12.4,18.6-18.6c0.1-0.1,0.1-0.1,0.2-0.2
			c3.2,3.2,6.4,6.4,9.5,9.5c0,0-0.1,0.1-0.2,0.2C22.3,22.2,16,28.4,9.8,34.6c-0.1,0.1-0.2,0.2-0.2,0.3c-3.2,0-6.4,0-9.6,0
			C0,31.7,0,28.5,0,25.3z M5.1,24.4C5,24.4,5,24.5,5.1,24.4c-0.7,0.7-1.3,1.3-2,2C3,26.5,3,26.6,3,26.7c0,0.6,0,1.3,0,1.9
			c0,0.1,0,0.2,0,0.4c1,0,1.9,0,2.9,0c0,1,0,1.9,0,2.9c0.8,0,1.5,0,2.3,0c0.1,0,0.3-0.1,0.3-0.1c0.6-0.6,1.2-1.2,1.8-1.8
			c0,0,0.1-0.1,0.1-0.1C8.7,28,6.9,26.2,5.1,24.4z M19.9,10c-0.2,0.1-0.3,0.2-0.5,0.3c-4.1,4.1-8.2,8.2-12.3,12.3
			C7.1,22.6,7,22.7,7,22.8c-0.1,0.2-0.1,0.5,0,0.7c0.1,0.2,0.5,0.2,0.7,0.1c0.1-0.1,0.2-0.1,0.2-0.2c4.1-4.1,8.2-8.2,12.2-12.2
			c0.1-0.1,0.2-0.2,0.3-0.4C20.5,10.4,20.3,10.1,19.9,10z"/>
		<path class="st0" d="M34.8,8.6c0,0.1-0.1,0.3-0.1,0.4c-0.1,0.5-0.3,1-0.7,1.3c-1.3,1.3-2.5,2.5-3.8,3.8c0,0-0.1,0-0.1,0.1
			C27,11,23.9,7.9,20.7,4.7c0,0,0.1-0.1,0.1-0.2C22,3.4,23.2,2.2,24.4,1c0.5-0.5,1.1-0.8,1.8-0.9c0,0,0.1,0,0.1,0c0.1,0,0.3,0,0.4,0
			c0.1,0,0.1,0,0.2,0.1c0.7,0.1,1.2,0.4,1.7,0.8c1.8,1.8,3.6,3.6,5.4,5.3c0.4,0.4,0.7,0.9,0.8,1.5c0,0.1,0.1,0.3,0.1,0.4
			C34.8,8.3,34.8,8.5,34.8,8.6z"/>
	</g>
</g>
</svg>
