<?xml version="1.0" encoding="utf-8"?>
<!-- Generator: Adobe Illustrator 22.1.0, SVG Export Plug-In . SVG Version: 6.00 Build 0)  -->
<svg version="1.1" id="Layer_16" xmlns="http://www.w3.org/2000/svg" xmlns:xlink="http://www.w3.org/1999/xlink" x="0px" y="0px"
	 viewBox="0 0 35 35" style="enable-background:new 0 0 35 35;" xml:space="preserve">
<style type="text/css">
	.st0{fill:none;}
	.st1{fill:#666666;}
</style>
<path class="st0" d="M17.5,1.5v7.1c4.2,0,7.9,3,8.8,7.1l6.9-1.5C31.6,6.7,25.1,1.4,17.5,1.5z"/>
<path class="st1" d="M34.9,15.6L34.9,15.6c-0.1-0.6-0.2-1.2-0.3-1.8l0,0c-2-9.4-11.3-15.5-20.7-13.5S-1.6,11.7,0.4,21.1
	s11.3,15.5,20.7,13.5C29.2,32.9,35,25.8,35,17.5C35,16.9,35,16.3,34.9,15.6z M33.2,14.1L33.2,14.1l-6.9,1.5l0,0
	c-0.9-4.2-4.6-7.1-8.8-7.1v-7C25.1,1.5,31.6,6.8,33.2,14.1z M17.5,25c-4.1,0-7.5-3.4-7.5-7.5s3.4-7.5,7.5-7.5s7.5,3.4,7.5,7.5
	S21.6,25,17.5,25z M26.5,16.5L26.5,16.5z"/>
</svg>
