<?xml version="1.0" encoding="utf-8"?>
<!-- Generator: Adobe Illustrator 22.1.0, SVG Export Plug-In . SVG Version: 6.00 Build 0)  -->
<svg version="1.1" id="Layer_9" xmlns="http://www.w3.org/2000/svg" xmlns:xlink="http://www.w3.org/1999/xlink" x="0px" y="0px"
	 viewBox="0 0 35 35" style="enable-background:new 0 0 35 35;" xml:space="preserve">
<style type="text/css">
	.st0{fill:#666666;}
</style>
<path id="path20" class="st0" d="M31.8,10.7c0,1.1-0.9,2-2,2s-2-0.9-2-2s0.9-2,2-2S31.8,9.6,31.8,10.7z"/>
<path id="path20-6" class="st0" d="M28.7,19.8c0,1.1-0.9,2-2,2s-2-0.9-2-2s0.9-2,2-2S28.7,18.7,28.7,19.8z"/>
<path id="path20-2" class="st0" d="M18.9,24.4c0,1.1-0.9,2-2,2s-2-0.9-2-2s0.9-2,2-2S18.9,23.3,18.9,24.4z"/>
<path id="path20-1" class="st0" d="M14.3,14.6c0,1.1-0.9,2-2,2s-2-0.9-2-2s0.9-2,2-2S14.3,13.5,14.3,14.6z"/>
<path id="path20-27" class="st0" d="M21.8,8c0,1.1-0.9,2-2,2s-2-0.9-2-2s0.9-2,2-2S21.8,6.9,21.8,8z"/>
<polygon class="st0" points="4.5,30.5 4.5,0 0,0 0,30.5 0,35 4.5,35 35,35 35,30.5 "/>
</svg>
