<svg id="Layer_1" data-name="Layer 1" xmlns="http://www.w3.org/2000/svg" viewBox="0 0 64 64"><defs><style>.cls-1{fill:#bcbcbc;stroke:#9a9a9a;stroke-miterlimit:10;stroke-width:1.5px;}.cls-2{fill:#2a617e;}</style></defs><title>Icon</title><line class="cls-1" x1="32" y1="5" x2="32" y2="59"/><line class="cls-1" x1="14.31" y1="23.62" x2="49.69" y2="23.62"/><line class="cls-1" x1="14.31" y1="41.31" x2="49.69" y2="41.31"/><path class="cls-2" d="M26.78,19.22H24.73l-.82-2.12H20.18l-.77,2.12h-2l3.64-9.33h2Zm-3.47-3.69L22,12.07l-1.26,3.46Z"/><path class="cls-2" d="M42.34,19.22H40.55V12.48a6.23,6.23,0,0,1-2.31,1.36V12.21a5,5,0,0,0,1.52-.87,3.29,3.29,0,0,0,1.13-1.49h1.45Z"/><path class="cls-2" d="M18.37,28H22.1a10.69,10.69,0,0,1,1.65.1,2.35,2.35,0,0,1,1.69,1.16,2.14,2.14,0,0,1,.29,1.09,2.17,2.17,0,0,1-.36,1.21,2.23,2.23,0,0,1-.95.82,2.46,2.46,0,0,1,1.31.84,2.28,2.28,0,0,1,.45,1.41,2.75,2.75,0,0,1-.29,1.24,2.54,2.54,0,0,1-.81,1,2.6,2.6,0,0,1-1.26.44c-.32,0-1.07.06-2.28.07H18.37Zm1.88,1.56v2.16h1.24c.73,0,1.19,0,1.37,0a1.24,1.24,0,0,0,.76-.33,1,1,0,0,0,.27-.73,1.05,1.05,0,0,0-.23-.7,1.11,1.11,0,0,0-.72-.33c-.18,0-.72,0-1.61,0Zm0,3.71V35.8H22a10.33,10.33,0,0,0,1.29,0,1.13,1.13,0,0,0,.68-.38,1.11,1.11,0,0,0,.27-.79,1.17,1.17,0,0,0-.21-.71,1.1,1.1,0,0,0-.59-.43,6.36,6.36,0,0,0-1.67-.13Z"/><path class="cls-2" d="M44.29,35.71v1.67H38a4.2,4.2,0,0,1,.61-1.79,12,12,0,0,1,2-2.24,13.55,13.55,0,0,0,1.48-1.52,2,2,0,0,0,.37-1.1,1.27,1.27,0,0,0-.32-.92,1.23,1.23,0,0,0-.89-.32,1.18,1.18,0,0,0-.89.34A1.71,1.71,0,0,0,40,31l-1.78-.18a2.89,2.89,0,0,1,1-2.12,3.34,3.34,0,0,1,2.1-.64,3,3,0,0,1,2.17.74,2.48,2.48,0,0,1,.79,1.85,3.24,3.24,0,0,1-.23,1.2,4.88,4.88,0,0,1-.72,1.2,11,11,0,0,1-1.17,1.19c-.56.51-.92.86-1.07,1a3.71,3.71,0,0,0-.37.49Z"/><path class="cls-2" d="M24.33,52.1l1.83.58A4.12,4.12,0,0,1,24.76,55a4,4,0,0,1-2.48.74,4,4,0,0,1-3.05-1.27A4.85,4.85,0,0,1,18,51a5.12,5.12,0,0,1,1.2-3.62A4.15,4.15,0,0,1,22.4,46a3.89,3.89,0,0,1,2.78,1,3.69,3.69,0,0,1,.95,1.72l-1.86.45a2,2,0,0,0-.69-1.15,2,2,0,0,0-1.28-.42,2.11,2.11,0,0,0-1.68.75A3.64,3.64,0,0,0,20,50.81a3.87,3.87,0,0,0,.64,2.52,2.05,2.05,0,0,0,1.65.75,1.92,1.92,0,0,0,1.3-.48A2.74,2.74,0,0,0,24.33,52.1Z"/><path class="cls-2" d="M38.18,53.05l1.73-.21a1.7,1.7,0,0,0,.45,1,1.22,1.22,0,0,0,.88.35,1.2,1.2,0,0,0,.93-.42,1.65,1.65,0,0,0,.38-1.14,1.5,1.5,0,0,0-.37-1.07,1.15,1.15,0,0,0-.88-.39,3.06,3.06,0,0,0-.82.13l.2-1.45a1.57,1.57,0,0,0,1.1-.32,1.11,1.11,0,0,0,.39-.89,1,1,0,0,0-1-1,1.08,1.08,0,0,0-.78.32,1.49,1.49,0,0,0-.4.93l-1.64-.28a3.53,3.53,0,0,1,.51-1.35,2.39,2.39,0,0,1,1-.8,3.32,3.32,0,0,1,1.39-.29A2.76,2.76,0,0,1,43.3,47,2.19,2.19,0,0,1,44,48.55a2.22,2.22,0,0,1-1.34,2,2.15,2.15,0,0,1,1.28.77,2.21,2.21,0,0,1,.48,1.44,2.78,2.78,0,0,1-.9,2.09,3.08,3.08,0,0,1-2.23.87,3,3,0,0,1-2.1-.73A2.86,2.86,0,0,1,38.18,53.05Z"/></svg>