<svg id="Layer_1" data-name="Layer 1" xmlns="http://www.w3.org/2000/svg" width="48" height="48" viewBox="0 0 48 48"><defs><style>.cls-1{fill:#fff;}</style></defs><path class="cls-1" d="M24.65,18.66v-.07c.58,0,1.15,0,1.72,0a43.18,43.18,0,0,0,5.09-.48,33.17,33.17,0,0,0,5.82-1.42,19.06,19.06,0,0,0,4.8-2.39,8.18,8.18,0,0,0,2.37-2.46,4.28,4.28,0,0,0,.18-4.33,7,7,0,0,0-2-2.38A15.53,15.53,0,0,0,38.7,2.87,32.27,32.27,0,0,0,30.21.73,42.61,42.61,0,0,0,25.84.4,44.23,44.23,0,0,0,17.47,1a32.7,32.7,0,0,0-5.61,1.42,19,19,0,0,0-4.3,2.1A8.87,8.87,0,0,0,5,7a4.35,4.35,0,0,0-.63,3.59A6,6,0,0,0,6,13.27a12.69,12.69,0,0,0,2.92,2.07,24.53,24.53,0,0,0,5.41,2,35.09,35.09,0,0,0,6.35,1.06C22,18.53,23.33,18.59,24.65,18.66Zm20.47-6.17c-.08.31-.15.65-.26,1A6.35,6.35,0,0,1,43,16a14.22,14.22,0,0,1-3.89,2.41,27.8,27.8,0,0,1-5.64,1.78,41.13,41.13,0,0,1-7.08.86,46.08,46.08,0,0,1-6.54-.22,38,38,0,0,1-4.73-.79,26.62,26.62,0,0,1-5.5-1.87A13.53,13.53,0,0,1,6.1,15.85a6.13,6.13,0,0,1-1.67-2.44c-.1-.29-.16-.59-.25-.9V19a4.4,4.4,0,0,0,.45,1.92,7.28,7.28,0,0,0,2,2.4,15,15,0,0,0,3.48,2.09,30.59,30.59,0,0,0,7.51,2.15,43.59,43.59,0,0,0,5,.51,44.61,44.61,0,0,0,5-.05,40.66,40.66,0,0,0,4.25-.49,32.44,32.44,0,0,0,5.49-1.38,18,18,0,0,0,4.76-2.39,8.45,8.45,0,0,0,2.21-2.21,4.73,4.73,0,0,0,.81-2.69c0-2,0-4.11,0-6.17Zm0,9.47c-.08.32-.15.65-.26,1A6.36,6.36,0,0,1,43,25.48,14.64,14.64,0,0,1,38.89,28a31.54,31.54,0,0,1-9.07,2.27c-1.19.14-2.39.21-3.59.27a38.36,38.36,0,0,1-5.57-.15c-1.23-.12-2.46-.28-3.68-.49a28.78,28.78,0,0,1-6.37-1.81A15.29,15.29,0,0,1,6.4,25.6a7.33,7.33,0,0,1-1.68-2A4.84,4.84,0,0,1,4.2,22a.3.3,0,0,0,0,.13v6.3a4.33,4.33,0,0,0,.47,2,7.38,7.38,0,0,0,2.1,2.48,16.16,16.16,0,0,0,4.09,2.3,32.67,32.67,0,0,0,8.76,2.1c1.26.14,2.52.2,3.79.26a33.4,33.4,0,0,0,4.69-.11c1.27-.11,2.53-.27,3.78-.46a29.8,29.8,0,0,0,5.72-1.45,18.5,18.5,0,0,0,4.5-2.28A8.56,8.56,0,0,0,44.32,31a4.69,4.69,0,0,0,.81-2.67c0-2.06,0-4.11,0-6.17Zm0,9.44a5.17,5.17,0,0,1-.78,2.05,8.77,8.77,0,0,1-2.5,2.43,19.45,19.45,0,0,1-4.63,2.25A34.78,34.78,0,0,1,30,39.72a41.64,41.64,0,0,1-4.6.31,43.83,43.83,0,0,1-5.95-.28A39.22,39.22,0,0,1,15.14,39a26.48,26.48,0,0,1-5.56-1.91A12.89,12.89,0,0,1,6,34.72a5.89,5.89,0,0,1-1.67-2.58c-.07-.22-.11-.45-.16-.68h0v.2c0,2,0,4.06,0,6.09A4.79,4.79,0,0,0,5,40.48a9.11,9.11,0,0,0,2.52,2.43A19.28,19.28,0,0,0,12,45.07a34.48,34.48,0,0,0,7.9,1.7c1.15.12,2.31.18,3.46.23A43.12,43.12,0,0,0,32,46.41,32.52,32.52,0,0,0,37.45,45a18.89,18.89,0,0,0,4.39-2.17,8.72,8.72,0,0,0,2.46-2.38,4.69,4.69,0,0,0,.83-2.72c0-2,0-4.1,0-6.15Z"/><path class="cls-1" d="M24.65,18.66c-1.32-.07-2.65-.13-4-.23a35.09,35.09,0,0,1-6.35-1.06,24.53,24.53,0,0,1-5.41-2A12.69,12.69,0,0,1,6,13.27,6,6,0,0,1,4.32,10.6,4.35,4.35,0,0,1,5,7,8.87,8.87,0,0,1,7.56,4.48a19,19,0,0,1,4.3-2.1A32.7,32.7,0,0,1,17.47,1,44.23,44.23,0,0,1,25.84.4a42.61,42.61,0,0,1,4.37.33A32.27,32.27,0,0,1,38.7,2.87a15.53,15.53,0,0,1,3.91,2.25,7,7,0,0,1,2,2.38,4.28,4.28,0,0,1-.18,4.33,8.18,8.18,0,0,1-2.37,2.46,19.06,19.06,0,0,1-4.8,2.39,33.17,33.17,0,0,1-5.82,1.42,43.18,43.18,0,0,1-5.09.48c-.57,0-1.14,0-1.72,0Z"/><path class="cls-1" d="M45.12,12.49v.17c0,2.06,0,4.12,0,6.17a4.73,4.73,0,0,1-.81,2.69,8.45,8.45,0,0,1-2.21,2.21,18,18,0,0,1-4.76,2.39,32.44,32.44,0,0,1-5.49,1.38,40.66,40.66,0,0,1-4.25.49,44.61,44.61,0,0,1-5,.05,43.59,43.59,0,0,1-5-.51,30.59,30.59,0,0,1-7.51-2.15,15,15,0,0,1-3.48-2.09,7.28,7.28,0,0,1-2-2.4A4.4,4.4,0,0,1,4.18,19V12.51c.09.31.15.61.25.9A6.13,6.13,0,0,0,6.1,15.85a13.53,13.53,0,0,0,3.54,2.34,26.62,26.62,0,0,0,5.5,1.87,38,38,0,0,0,4.73.79,46.08,46.08,0,0,0,6.54.22,41.13,41.13,0,0,0,7.08-.86,27.8,27.8,0,0,0,5.64-1.78A14.22,14.22,0,0,0,43,16a6.35,6.35,0,0,0,1.84-2.56C45,13.14,45,12.8,45.12,12.49Z"/><path class="cls-1" d="M45.12,22v.18c0,2.06,0,4.11,0,6.17A4.69,4.69,0,0,1,44.32,31a8.56,8.56,0,0,1-2.24,2.25,18.5,18.5,0,0,1-4.5,2.28A29.8,29.8,0,0,1,31.86,37c-1.25.19-2.51.35-3.78.46a33.4,33.4,0,0,1-4.69.11c-1.27-.06-2.53-.12-3.79-.26a32.67,32.67,0,0,1-8.76-2.1,16.16,16.16,0,0,1-4.09-2.3,7.38,7.38,0,0,1-2.1-2.48,4.33,4.33,0,0,1-.47-2v-6.3a.3.3,0,0,1,0-.13,4.84,4.84,0,0,0,.52,1.57,7.33,7.33,0,0,0,1.68,2,15.29,15.29,0,0,0,4.21,2.49A28.78,28.78,0,0,0,17,29.9c1.22.21,2.45.37,3.68.49a38.36,38.36,0,0,0,5.57.15c1.2-.06,2.4-.13,3.59-.27A31.54,31.54,0,0,0,38.89,28,14.64,14.64,0,0,0,43,25.48a6.36,6.36,0,0,0,1.83-2.54C45,22.61,45,22.28,45.12,22Z"/><path class="cls-1" d="M45.12,31.4v.21c0,2,0,4.1,0,6.15a4.69,4.69,0,0,1-.83,2.72,8.72,8.72,0,0,1-2.46,2.38A18.89,18.89,0,0,1,37.45,45,32.52,32.52,0,0,1,32,46.41a43.12,43.12,0,0,1-8.71.59c-1.15,0-2.31-.11-3.46-.23a34.48,34.48,0,0,1-7.9-1.7,19.28,19.28,0,0,1-4.45-2.16A9.11,9.11,0,0,1,5,40.48a4.79,4.79,0,0,1-.83-2.72c0-2,0-4.06,0-6.09v-.2h0c0,.23.09.46.16.68A5.89,5.89,0,0,0,6,34.72a12.89,12.89,0,0,0,3.55,2.37A26.48,26.48,0,0,0,15.14,39a39.22,39.22,0,0,0,4.31.75A43.83,43.83,0,0,0,25.4,40a41.64,41.64,0,0,0,4.6-.31,34.78,34.78,0,0,0,7.21-1.59,19.45,19.45,0,0,0,4.63-2.25,8.77,8.77,0,0,0,2.5-2.43A5.17,5.17,0,0,0,45.12,31.4Z"/></svg>
