<svg id="Layer_5" data-name="Layer 5" xmlns="http://www.w3.org/2000/svg" viewBox="0 0 30.63 35"><title>document-viewer</title><path d="M31.37,7.83a30.7,30.7,0,0,0-3-3.41,30.7,30.7,0,0,0-3.41-3C23.22.15,22.36,0,21.88,0h-17A2.73,2.73,0,0,0,2.19,2.73V32.27A2.73,2.73,0,0,0,4.92,35H30.08a2.73,2.73,0,0,0,2.73-2.73V10.94C32.81,10.45,32.66,9.59,31.37,7.83ZM26.84,6a28.18,28.18,0,0,1,2.48,2.78H24.06V3.49A29.54,29.54,0,0,1,26.84,6Zm3.78,26.3a.55.55,0,0,1-.54.54H4.92a.56.56,0,0,1-.55-.54V2.73a.56.56,0,0,1,.55-.54h17V9.84a1.1,1.1,0,0,0,1.1,1.1h7.65Z" transform="translate(-2.19)"/><path d="M25.16,28.44H9.84a1.1,1.1,0,0,1,0-2.19H25.16a1.1,1.1,0,0,1,0,2.19Z" transform="translate(-2.19)"/><path d="M25.16,24.06H9.84a1.1,1.1,0,0,1,0-2.19H25.16a1.1,1.1,0,0,1,0,2.19Z" transform="translate(-2.19)"/><path d="M25.16,19.69H9.84a1.1,1.1,0,0,1,0-2.19H25.16a1.1,1.1,0,0,1,0,2.19Z" transform="translate(-2.19)"/></svg>
