<?xml version="1.0" encoding="utf-8"?>
<!-- Generator: Adobe Illustrator 22.1.0, SVG Export Plug-In . SVG Version: 6.00 Build 0)  -->
<svg version="1.1" id="Layer_1" xmlns="http://www.w3.org/2000/svg" xmlns:xlink="http://www.w3.org/1999/xlink" x="0px" y="0px"
	 viewBox="0 0 32 32" style="enable-background:new 0 0 32 32;" xml:space="preserve">
<style type="text/css">
	.st0{fill:#27607E;}
	.st1{fill:#FFFFFF;}
</style>
<g id="Layer_1_1_">
	<title>stacked_timeline</title>
	<g>
		<path class="st0" d="M27.5,7h-23c-0.6,0-1,0.4-1,1v2c0,0.6,0.4,1,1,1h23c0.6,0,1-0.4,1-1V8C28.5,7.4,28.1,7,27.5,7z"/>
		<path class="st0" d="M22.5,14h-13c-0.6,0-1,0.4-1,1v2c0,0.6,0.4,1,1,1h13c0.6,0,1-0.4,1-1v-2C23.5,14.4,23.1,14,22.5,14z"/>
		<path class="st0" d="M18.5,21h-5c-0.6,0-1,0.4-1,1v2c0,0.6,0.4,1,1,1h5c0.6,0,1-0.4,1-1v-2C19.5,21.4,19.1,21,18.5,21z"/>
	</g>
	<g>
		<path class="st1" d="M27.5,7h-23c-0.6,0-1,0.4-1,1v2c0,0.6,0.4,1,1,1h23c0.6,0,1-0.4,1-1V8C28.5,7.4,28.1,7,27.5,7z"/>
		<path class="st1" d="M22.5,14h-13c-0.6,0-1,0.4-1,1v2c0,0.6,0.4,1,1,1h13c0.6,0,1-0.4,1-1v-2C23.5,14.4,23.1,14,22.5,14z"/>
		<path class="st1" d="M18.5,21h-5c-0.6,0-1,0.4-1,1v2c0,0.6,0.4,1,1,1h5c0.6,0,1-0.4,1-1v-2C19.5,21.4,19.1,21,18.5,21z"/>
	</g>
</g>
</svg>
