<?xml version="1.0" encoding="utf-8"?>
<!-- Generator: Adobe Illustrator 22.1.0, SVG Export Plug-In . SVG Version: 6.00 Build 0)  -->
<svg version="1.1" id="Layer_3" xmlns="http://www.w3.org/2000/svg" xmlns:xlink="http://www.w3.org/1999/xlink" x="0px" y="0px"
	 viewBox="0 0 30.6 35" style="enable-background:new 0 0 30.6 35;" xml:space="preserve">
<style type="text/css">
	.st0{fill:#666666;}
</style>
<path class="st0" d="M25.1,30.6H3.3v-4.4l6.5-10.9l9,10.9l6.3-4.4L25.1,30.6z"/>
<path class="st0" d="M25.1,16.4c0,1.8-1.5,3.3-3.3,3.3c-1.8,0-3.3-1.5-3.3-3.3c0-1.8,1.5-3.3,3.3-3.3C23.7,13.1,25.2,14.6,25.1,16.4
	C25.2,16.4,25.2,16.4,25.1,16.4z"/>
<path class="st0" d="M29.2,7.8c-0.9-1.2-1.9-2.3-3-3.4c-1.1-1.1-2.2-2.1-3.4-3C21,0.2,20.2,0,19.7,0h-17C1.2,0,0,1.2,0,2.7v29.5
	C0,33.8,1.2,35,2.7,35h25.2c1.5,0,2.7-1.2,2.7-2.7l0,0V10.9C30.6,10.4,30.5,9.6,29.2,7.8z M24.6,6c0.9,0.9,1.7,1.8,2.5,2.8h-5.3V3.5
	C22.8,4.3,23.8,5.1,24.6,6z M28.4,32.3c0,0.3-0.2,0.5-0.5,0.5H2.7c-0.3,0-0.5-0.2-0.6-0.5V2.7c0-0.3,0.3-0.5,0.6-0.5h17v7.7
	c0,0.6,0.5,1.1,1.1,1.1l0,0h7.6L28.4,32.3z"/>
</svg>
