<svg id="Layer_3" data-name="Layer 3" xmlns="http://www.w3.org/2000/svg" viewBox="0 0 30.63 35"><title>media-viewer</title><path d="M27.34,30.62H5.47V26.25L12,15.31l9,10.94,6.32-4.38Z" transform="translate(-2.19)"/><path d="M27.34,16.41a3.28,3.28,0,1,1-3.28-3.29A3.28,3.28,0,0,1,27.34,16.41Z" transform="translate(-2.19)"/><path d="M31.37,7.83a30.7,30.7,0,0,0-3-3.41,30.7,30.7,0,0,0-3.41-3C23.22.15,22.36,0,21.88,0h-17A2.73,2.73,0,0,0,2.19,2.73V32.27A2.73,2.73,0,0,0,4.92,35H30.08a2.73,2.73,0,0,0,2.73-2.73V10.94C32.81,10.45,32.66,9.59,31.37,7.83ZM26.84,6a28.18,28.18,0,0,1,2.48,2.78H24.06V3.49A29.54,29.54,0,0,1,26.84,6Zm3.78,26.3a.55.55,0,0,1-.54.54H4.92a.56.56,0,0,1-.55-.54V2.73a.56.56,0,0,1,.55-.54h17V9.84a1.1,1.1,0,0,0,1.1,1.1h7.65Z" transform="translate(-2.19)"/></svg>
