<?xml version="1.0" encoding="UTF-8" standalone="no"?>
<svg
   xmlns:dc="http://purl.org/dc/elements/1.1/"
   xmlns:cc="http://creativecommons.org/ns#"
   xmlns:rdf="http://www.w3.org/1999/02/22-rdf-syntax-ns#"
   xmlns:svg="http://www.w3.org/2000/svg"
   xmlns="http://www.w3.org/2000/svg"
   xmlns:sodipodi="http://sodipodi.sourceforge.net/DTD/sodipodi-0.dtd"
   xmlns:inkscape="http://www.inkscape.org/namespaces/inkscape"
   id="Layer_1"
   data-name="Layer 1"
   viewBox="0 0 64 64"
   version="1.1"
   sodipodi:docname="Icon_Neon_Logo.svg"
   inkscape:version="0.92.3 (unknown)">
  <metadata
     id="metadata19">
    <rdf:RDF>
      <cc:Work
         rdf:about="">
        <dc:format>image/svg+xml</dc:format>
        <dc:type
           rdf:resource="http://purl.org/dc/dcmitype/StillImage" />
      </cc:Work>
    </rdf:RDF>
  </metadata>
  <sodipodi:namedview
     pagecolor="#ffffff"
     bordercolor="#666666"
     borderopacity="1"
     objecttolerance="10"
     gridtolerance="10"
     guidetolerance="10"
     inkscape:pageopacity="0"
     inkscape:pageshadow="2"
     inkscape:window-width="1557"
     inkscape:window-height="1176"
     id="namedview17"
     showgrid="false"
     inkscape:zoom="3.6875"
     inkscape:cx="32"
     inkscape:cy="32"
     inkscape:window-x="43"
     inkscape:window-y="24"
     inkscape:window-maximized="1"
     inkscape:current-layer="Layer_1" />
  <defs
     id="defs4">
    <style
       id="style2">.cls-1{fill:#27607e;}</style>
  </defs>
  <title
     id="title6">Icon</title>
  <g
     id="g25"
     transform="matrix(1.0777986,0,0,1.0777986,-2.5165002,-2.4895552)">
    <path
       id="path8"
       d="M 45.16,40.55 A 5.32,5.32 0 0 1 39.75,35 a 5.4,5.4 0 1 1 10.8,0 5.3,5.3 0 0 1 -5.39,5.55 z m 0,-9.45 c -2.06,0 -3.43,1.57 -3.43,3.91 0,2.34 1.37,3.92 3.43,3.92 2.06,0 3.41,-1.58 3.41,-3.92 0,-2.34 -1.38,-3.91 -3.41,-3.91 z"
       class="cls-1"
       inkscape:connector-curvature="0"
       style="fill:#27607e" />
    <path
       id="path10"
       d="m 59.54,40.35 v -6.71 c 0,-1.65 -0.61,-2.49 -2.16,-2.49 a 4.84,4.84 0 0 0 -3.25,1.73 v 7.47 h -2 V 29.67 H 54 v 1.63 a 5.72,5.72 0 0 1 4,-1.83 c 2.47,0 3.59,1.5 3.59,3.64 v 7.24 z"
       class="cls-1"
       inkscape:connector-curvature="0"
       style="fill:#27607e" />
    <path
       id="path12"
       d="m 30,31.15 c -1.73,0 -2.8,1.12 -3,3 h 6 a 2.86,2.86 0 0 0 -3,-3 z"
       class="cls-1"
       inkscape:connector-curvature="0"
       style="fill:#27607e" />
    <path
       id="path14"
       d="m 34.39,14.13 h -28 a 3.94,3.94 0 0 0 -3.93,3.93 v 27.88 a 3.94,3.94 0 0 0 3.93,3.93 h 28 a 3.94,3.94 0 0 0 3.93,-3.93 V 18.06 a 3.94,3.94 0 0 0 -3.93,-3.93 z m -12.2,26.5 -0.25,0.08 -12.1,-14.49 v 14.13 h -2 V 21.46 l 0.4,-0.1 12,14.26 v -13.9 h 2 z m 12.52,-5 h -7.83 c 0.23,1.83 1.24,3.21 4,3.21 a 10,10 0 0 0 2.95,-0.59 l 0.35,1.7 a 13.22,13.22 0 0 1 -3.48,0.61 c -3.84,0 -5.77,-2.41 -5.77,-5.49 0,-2.92 1.88,-5.59 5.18,-5.59 3,0 4.68,2.24 4.68,5.14 a 5.05,5.05 0 0 1 -0.08,1 z"
       class="cls-1"
       inkscape:connector-curvature="0"
       style="fill:#27607e" />
  </g>
</svg>
