<!-- Generated by IcoMoon.io -->
<svg version="1.1" xmlns="http://www.w3.org/2000/svg" width="32" height="32" viewBox="0 0 32 32">
<title>neon_logo</title>
<path fill="#27607e" d="M23.078 20.608c-0.015 0-0.033 0-0.051 0-1.583 0-2.867-1.284-2.867-2.867 0-0.044 0.001-0.087 0.003-0.131l-0 0.006c0-1.607 1.303-2.91 2.91-2.91s2.91 1.303 2.91 2.91v0c0.002 0.040 0.003 0.088 0.003 0.135 0 1.577-1.279 2.856-2.856 2.856-0.018 0-0.036-0-0.054-0l0.003 0zM23.078 15.515c-1.11 0-1.848 0.846-1.848 2.107s0.738 2.113 1.848 2.113c1.11 0 1.838-0.851 1.838-2.113s-0.744-2.107-1.838-2.107z"></path>
<path fill="#27607e" d="M30.828 20.5v-3.616c0-0.889-0.329-1.342-1.164-1.342-0.708 0.072-1.323 0.418-1.748 0.928l-0.003 0.004v4.026h-1.078v-5.755h1.008v0.878c0.541-0.583 1.302-0.956 2.15-0.986l0.005-0c1.331 0 1.935 0.808 1.935 1.962v3.902z"></path>
<path fill="#27607e" d="M14.909 15.542c-0.932 0-1.509 0.604-1.617 1.617h3.233c0.001-0.023 0.002-0.050 0.002-0.077 0-0.851-0.69-1.541-1.541-1.541-0.027 0-0.054 0.001-0.081 0.002l0.004-0z"></path>
<path fill="#27607e" d="M17.274 6.37h-15.089c-1.168 0.003-2.115 0.949-2.118 2.118v15.025c0.003 1.168 0.949 2.115 2.118 2.118h15.089c1.168-0.003 2.115-0.949 2.118-2.118v-15.025c-0.003-1.168-0.949-2.115-2.118-2.118h-0zM10.7 20.651l-0.135 0.043-6.521-7.809v7.615h-1.078v-10.18l0.216-0.054 6.467 7.685v-7.491h1.078zM17.447 17.956h-4.22c0.124 0.986 0.668 1.73 2.156 1.73 0.578-0.028 1.12-0.142 1.627-0.33l-0.037 0.012 0.189 0.916c-0.555 0.183-1.197 0.301-1.861 0.328l-0.014 0c-2.069 0-3.109-1.299-3.109-2.959 0-1.574 1.013-3.012 2.791-3.012 1.617 0 2.522 1.207 2.522 2.77 0 0.016 0.001 0.035 0.001 0.053 0 0.172-0.016 0.339-0.046 0.502l0.003-0.017z"></path>
</svg>
