<svg id="Layer_9" data-name="Layer 9" xmlns="http://www.w3.org/2000/svg" viewBox="0 0 35 35"><title>scatter-chart</title><path id="path20" d="M31.81,10.73a2,2,0,1,1-2-2A2,2,0,0,1,31.81,10.73Z"/><path id="path20-6" d="M28.67,19.82a2,2,0,1,1-2-2A2,2,0,0,1,28.67,19.82Z"/><path id="path20-2" d="M18.88,24.42a2,2,0,1,1-2-2A2,2,0,0,1,18.88,24.42Z"/><path id="path20-1" d="M14.32,14.58a2,2,0,1,1-2-2A2,2,0,0,1,14.32,14.58Z"/><path id="path20-27" d="M21.75,8a2,2,0,1,1-2-2A2,2,0,0,1,21.75,8Z"/><polygon points="4.47 30.53 4.47 0 0 0 0 30.53 0 35 4.47 35 35 35 35 30.53 4.47 30.53"/></svg>
