<?xml version="1.0" encoding="UTF-8" standalone="no"?>
<!-- Generated by IcoMoon.io -->

<svg
   xmlns:dc="http://purl.org/dc/elements/1.1/"
   xmlns:cc="http://creativecommons.org/ns#"
   xmlns:rdf="http://www.w3.org/1999/02/22-rdf-syntax-ns#"
   xmlns:svg="http://www.w3.org/2000/svg"
   xmlns="http://www.w3.org/2000/svg"
   xmlns:sodipodi="http://sodipodi.sourceforge.net/DTD/sodipodi-0.dtd"
   xmlns:inkscape="http://www.inkscape.org/namespaces/inkscape"
   version="1.1"
   width="32"
   height="32"
   viewBox="0 0 32 32"
   id="svg26"
   sodipodi:docname="scatter_plot.svg"
   inkscape:version="0.92.3 (unknown)">
  <metadata
     id="metadata32">
    <rdf:RDF>
      <cc:Work
         rdf:about="">
        <dc:format>image/svg+xml</dc:format>
        <dc:type
           rdf:resource="http://purl.org/dc/dcmitype/StillImage" />
      </cc:Work>
    </rdf:RDF>
  </metadata>
  <defs
     id="defs30" />
  <sodipodi:namedview
     pagecolor="#ffffff"
     bordercolor="#666666"
     borderopacity="1"
     objecttolerance="10"
     gridtolerance="10"
     guidetolerance="10"
     inkscape:pageopacity="0"
     inkscape:pageshadow="2"
     inkscape:window-width="710"
     inkscape:window-height="378"
     id="namedview28"
     showgrid="false"
     inkscape:zoom="3.6875"
     inkscape:cx="-26.297542"
     inkscape:cy="16.448278"
     inkscape:window-x="300"
     inkscape:window-y="118"
     inkscape:window-maximized="0"
     inkscape:current-layer="svg26" />
  <title
     id="title2">scatter_plot</title>
  <path
     fill="#27607e"
     d="M74.332 91.707c0 9.243-7.5 16.736-16.751 16.736s-16.751-7.493-16.751-16.736c0-9.243 7.5-16.736 16.751-16.736s16.751 7.493 16.751 16.736z"
     id="path18" />
  <path
     d="m 29.123729,9.7821775 c 0,0.9927945 -0.805964,1.7973945 -1.800122,1.7973945 -0.994158,0 -1.800122,-0.8046 -1.800122,-1.7973945 0,-0.992794 0.805964,-1.797394 1.800122,-1.797394 0.994158,0 1.800122,0.8046 1.800122,1.797394 z"
     id="path20"
     inkscape:connector-curvature="0"
     style="fill:#27607e;stroke-width:1.36372876" />
  <path
     d="M 4.0905004,-0.04454614 V 32 H 0 V -0.04454614 Z"
     id="path10-5"
     inkscape:connector-curvature="0"
     style="fill:#27607e;stroke-width:2.65755987" />
  <path
     d="m 26.249238,18.097561 c 0,0.992795 -0.805964,1.797395 -1.800122,1.797395 -0.994158,0 -1.800122,-0.8046 -1.800122,-1.797395 0,-0.992794 0.805964,-1.797394 1.800122,-1.797394 0.994158,0 1.800122,0.8046 1.800122,1.797394 z"
     id="path20-6"
     inkscape:connector-curvature="0"
     style="fill:#27607e;stroke-width:1.36372876" />
  <path
     d="m 17.284562,22.316232 c 0,0.992795 -0.805964,1.797395 -1.800122,1.797395 -0.994158,0 -1.800122,-0.8046 -1.800122,-1.797395 0,-0.992794 0.805964,-1.797394 1.800122,-1.797394 0.994158,0 1.800122,0.8046 1.800122,1.797394 z"
     id="path20-2"
     inkscape:connector-curvature="0"
     style="fill:#27607e;stroke-width:1.36372876" />
  <path
     d="m 13.113831,13.303617 c 0,0.992795 -0.805964,1.797395 -1.800122,1.797395 -0.994158,0 -1.8001225,-0.8046 -1.8001225,-1.797395 0,-0.992794 0.8059645,-1.797394 1.8001225,-1.797394 0.994158,0 1.800122,0.8046 1.800122,1.797394 z"
     id="path20-1"
     inkscape:connector-curvature="0"
     style="fill:#27607e;stroke-width:1.36372876" />
  <path
     d="m 19.911353,7.2933253 c 0,0.9927945 -0.805964,1.7973945 -1.800122,1.7973945 -0.994158,0 -1.800122,-0.8046 -1.800122,-1.7973945 0,-0.992794 0.805964,-1.797394 1.800122,-1.797394 0.994158,0 1.800122,0.8046 1.800122,1.797394 z"
     id="path20-27"
     inkscape:connector-curvature="0"
     style="fill:#27607e;stroke-width:1.36372876" />
  <path
     d="M 32.044547,32 H 0 v -4.0905 h 32.044547 z"
     id="path10-5-0"
     inkscape:connector-curvature="0"
     style="fill:#27607e;stroke-width:2.65755987" />
</svg>
