<svg id="Layer_10" data-name="Layer 10" xmlns="http://www.w3.org/2000/svg" viewBox="0 0 35 35"><title>stacked-barchart</title><path d="M25,8.75V1.25A1.25,1.25,0,0,0,23.75,0H1.25A1.25,1.25,0,0,0,0,1.25v7.5A1.25,1.25,0,0,0,1.25,10h22.5A1.25,1.25,0,0,0,25,8.75Zm-22.5,0V1.25h10v7.5ZM30,21.25v-7.5a1.25,1.25,0,0,0-1.25-1.25H1.25A1.25,1.25,0,0,0,0,13.75v7.5A1.25,1.25,0,0,0,1.25,22.5h27.5A1.25,1.25,0,0,0,30,21.25Zm-27.5,0v-7.5H15v7.5ZM35,33.75v-7.5A1.25,1.25,0,0,0,33.75,25H1.25A1.25,1.25,0,0,0,0,26.25v7.5A1.25,1.25,0,0,0,1.25,35h32.5A1.25,1.25,0,0,0,35,33.75Zm-32.5,0v-7.5h15v7.5Z"/></svg>
