<svg id="Layer_11" data-name="Layer 11" xmlns="http://www.w3.org/2000/svg" viewBox="0 0 35 19.69"><title>text-cloud</title><path d="M15.29,20a1.91,1.91,0,0,0-1.77,1.87h3.37A1.64,1.64,0,0,0,15.29,20Z" transform="translate(0 -7.66)"/><path d="M35,21.38a6,6,0,0,0-4.55-5.79,8.13,8.13,0,0,0-14.51-4.83,4.56,4.56,0,0,0-8.18,2.79,4.63,4.63,0,0,0,0,.65,6.47,6.47,0,0,0-1.18-.11,6.63,6.63,0,0,0,0,13.25H29.05a6,6,0,0,0,5.95-6ZM10.15,25.7H9V17.83H6.31v-1h6.54v1h-2.7Zm7.82-3H13.51a2,2,0,0,0,2.18,2.2,4.13,4.13,0,0,0,1.76-.33l.19.83a5.18,5.18,0,0,1-2.11.39,3,3,0,0,1-3.12-3.2c0-1.91,1.13-3.42,3-3.42,2.07,0,2.62,1.82,2.62,3A5.05,5.05,0,0,1,18,22.74Zm5.08,3-.93-1.43c-.25-.36-.46-.72-.68-1.1h0c-.21.38-.43.72-.67,1.1l-.92,1.43H18.55l2.26-3.24-2.15-3.11h1.28l.91,1.37c.23.35.43.68.64,1h0c.21-.38.42-.7.63-1l.89-1.36H24.3l-2.17,3.07,2.23,3.28Zm5.64-5.47H27v3.43c0,.78.22,1.23.87,1.23a2.58,2.58,0,0,0,.67-.08l.05.87a2.89,2.89,0,0,1-1,.15,1.61,1.61,0,0,1-1.25-.48,2.34,2.34,0,0,1-.45-1.65V20.23h-1v-.88h1V17.83l1.13-.3v1.82h1.65Z" transform="translate(0 -7.66)"/></svg>
