<svg id="Layer_17" data-name="Layer 17" xmlns="http://www.w3.org/2000/svg" viewBox="0 0 35 27.5"><title>thumbnail-viewer</title><path d="M10,25.62v3.76a1.88,1.88,0,0,1-1.88,1.87H1.88A1.88,1.88,0,0,1,0,29.38V25.62a1.88,1.88,0,0,1,1.88-1.87H8.12A1.88,1.88,0,0,1,10,25.62Zm0-10v3.76a1.88,1.88,0,0,1-1.88,1.87H1.88A1.88,1.88,0,0,1,0,19.38V15.62a1.88,1.88,0,0,1,1.88-1.87H8.12A1.88,1.88,0,0,1,10,15.62Zm12.5,10v3.76a1.88,1.88,0,0,1-1.88,1.87H14.38a1.88,1.88,0,0,1-1.88-1.87V25.62a1.88,1.88,0,0,1,1.88-1.87h6.24A1.88,1.88,0,0,1,22.5,25.62ZM10,5.62V9.38a1.88,1.88,0,0,1-1.88,1.87H1.88A1.88,1.88,0,0,1,0,9.38V5.62A1.88,1.88,0,0,1,1.88,3.75H8.12A1.88,1.88,0,0,1,10,5.62Zm12.5,10v3.76a1.88,1.88,0,0,1-1.88,1.87H14.38a1.88,1.88,0,0,1-1.88-1.87V15.62a1.88,1.88,0,0,1,1.88-1.87h6.24A1.88,1.88,0,0,1,22.5,15.62Zm12.5,10v3.76a1.88,1.88,0,0,1-1.88,1.87H26.88A1.88,1.88,0,0,1,25,29.38V25.62a1.88,1.88,0,0,1,1.88-1.87h6.24A1.88,1.88,0,0,1,35,25.62Zm-12.5-20V9.38a1.88,1.88,0,0,1-1.88,1.87H14.38A1.88,1.88,0,0,1,12.5,9.38V5.62a1.88,1.88,0,0,1,1.88-1.87h6.24A1.88,1.88,0,0,1,22.5,5.62Zm12.5,10v3.76a1.88,1.88,0,0,1-1.88,1.87H26.88A1.88,1.88,0,0,1,25,19.38V15.62a1.88,1.88,0,0,1,1.88-1.87h6.24A1.88,1.88,0,0,1,35,15.62Zm0-10V9.38a1.88,1.88,0,0,1-1.88,1.87H26.88A1.88,1.88,0,0,1,25,9.38V5.62a1.88,1.88,0,0,1,1.88-1.87h6.24A1.88,1.88,0,0,1,35,5.62Z" transform="translate(0 -3.75)"/></svg>
