<svg id="Layer_13" data-name="Layer 13" xmlns="http://www.w3.org/2000/svg" viewBox="0 0 35 22.16"><title>wiki</title><path d="M35,6.78a.57.57,0,0,1-.12.35.33.33,0,0,1-.26.15A3.42,3.42,0,0,0,32.73,8a6.89,6.89,0,0,0-1.5,2.4L23.28,28.34c-.05.16-.2.24-.44.24a.49.49,0,0,1-.43-.24L18,19l-5.13,9.32a.49.49,0,0,1-.44.24.45.45,0,0,1-.45-.24L4.13,10.43A6.11,6.11,0,0,0,2.59,8.11,4.15,4.15,0,0,0,.34,7.29a.28.28,0,0,1-.23-.13A.4.4,0,0,1,0,6.86c0-.29.08-.44.25-.44.69,0,1.42,0,2.18.1s1.37.09,2,.09,1.38,0,2.24-.09,1.7-.1,2.41-.1c.16,0,.24.15.24.44s-.05.43-.15.43a3.25,3.25,0,0,0-1.65.53A1.42,1.42,0,0,0,6.92,9a2.31,2.31,0,0,0,.25.93L13.61,24.5l3.66-6.91-3.41-7.15A9,9,0,0,0,12.35,8a3,3,0,0,0-1.79-.68.26.26,0,0,1-.21-.13.44.44,0,0,1-.1-.3c0-.29.07-.44.22-.44a18.55,18.55,0,0,1,1.91.1,17.07,17.07,0,0,0,1.8.09c.62,0,1.27,0,2-.09s1.42-.1,2.11-.1c.17,0,.25.15.25.44s-.05.43-.16.43c-1.39.1-2.08.5-2.08,1.19a3.87,3.87,0,0,0,.48,1.45L19,14.51l2.25-4.19a3.54,3.54,0,0,0,.47-1.49c0-1-.7-1.47-2.09-1.53-.12,0-.19-.14-.19-.43a.51.51,0,0,1,.1-.29c.06-.09.12-.14.18-.14.5,0,1.11,0,1.84.09s1.27.1,1.72.1.79,0,1.41-.08c.79-.07,1.45-.11,2-.11.13,0,.19.12.19.37s-.12.5-.34.5a4,4,0,0,0-2,.67,8.64,8.64,0,0,0-1.84,2.48l-3,5.51,4.05,8.25,6-13.91a3.88,3.88,0,0,0,.3-1.4c0-1-.69-1.55-2.08-1.62-.13,0-.19-.15-.19-.43s.1-.44.28-.44c.51,0,1.11,0,1.81.09s1.18.09,1.62.09,1,0,1.58-.09,1.19-.09,1.69-.09c.15,0,.23.12.23.37Z" transform="translate(0 -6.42)"/></svg>
