<!-- Generated by IcoMoon.io -->
<svg version="1.1" xmlns="http://www.w3.org/2000/svg" width="32" height="32" viewBox="0 0 32 32">
<title>stacked_timeline</title>
<path fill="#27607e"  d="M20 9v-6c0-0.55-0.45-1-1-1h-18c-0.55 0-1 0.45-1 1v6c0 0.55 0.45 1 1 1h18c0.55 0 1-0.45 1-1zM2 9v-6h8v6h-8zM24 19v-6c0-0.55-0.45-1-1-1h-22c-0.55 0-1 0.45-1 1v6c0 0.55 0.45 1 1 1h22c0.55 0 1-0.45 1-1zM2 19v-6h10v6h-10zM28 29v-6c0-0.55-0.45-1-1-1h-26c-0.55 0-1 0.45-1 1v6c0 0.55 0.45 1 1 1h26c0.55 0 1-0.45 1-1zM2 29v-6h12v6h-12z"></path>
</svg>
