<?xml version="1.0" encoding="UTF-8" standalone="no"?>
<svg
   xmlns:dc="http://purl.org/dc/elements/1.1/"
   xmlns:cc="http://creativecommons.org/ns#"
   xmlns:rdf="http://www.w3.org/1999/02/22-rdf-syntax-ns#"
   xmlns:svg="http://www.w3.org/2000/svg"
   xmlns="http://www.w3.org/2000/svg"
   xmlns:sodipodi="http://sodipodi.sourceforge.net/DTD/sodipodi-0.dtd"
   xmlns:inkscape="http://www.inkscape.org/namespaces/inkscape"
   id="Layer_1"
   data-name="Layer 1"
   viewBox="0 0 64 64"
   version="1.1"
   sodipodi:docname="icon_annotation_viewer.svg"
   inkscape:version="0.92.3 (unknown)">
  <metadata
     id="metadata25">
    <rdf:RDF>
      <cc:Work
         rdf:about="">
        <dc:format>image/svg+xml</dc:format>
        <dc:type
           rdf:resource="http://purl.org/dc/dcmitype/StillImage" />
      </cc:Work>
    </rdf:RDF>
  </metadata>
  <sodipodi:namedview
     pagecolor="#ffffff"
     bordercolor="#666666"
     borderopacity="1"
     objecttolerance="10"
     gridtolerance="10"
     guidetolerance="10"
     inkscape:pageopacity="0"
     inkscape:pageshadow="2"
     inkscape:window-width="1557"
     inkscape:window-height="1176"
     id="namedview23"
     showgrid="false"
     inkscape:zoom="3.6875"
     inkscape:cx="32"
     inkscape:cy="32"
     inkscape:window-x="43"
     inkscape:window-y="24"
     inkscape:window-maximized="1"
     inkscape:current-layer="Layer_1" />
  <defs
     id="defs4">
    <style
       id="style2">.cls-1{fill:#27607e;}.cls-2{fill:#4dbec2;}</style>
  </defs>
  <title
     id="title6">Icon</title>
  <g
     id="g34"
     transform="translate(-4.1925986,4.0677976)">
    <path
       style="fill:#27607e;stroke-width:1.15065908"
       inkscape:connector-curvature="0"
       id="path8"
       d="m 14.109642,41.970245 a 2.8536347,2.8536347 0 0 0 2.865141,2.865141 H 37.9513 L 38.676215,39.08209 H 16.974783 a 2.8536347,2.8536347 0 0 0 -2.865141,2.888155 z"
       class="cls-1" />
    <path
       style="fill:#27607e;stroke-width:1.15065908"
       inkscape:connector-curvature="0"
       id="path10"
       d="m 49.849115,45.709887 h -0.161093 v 3.451978 a 4.0618267,4.0618267 0 0 1 -4.061827,4.08484 H 14.040603 A 4.0618267,4.0618267 0 0 1 9.9787758,49.184878 V 6.6104899 A 4.0618267,4.0618267 0 0 1 14.040603,2.6177027 h 23.013182 c 0.149586,0 0.287665,0 0.425744,0 v 5.7532956 a 5.9834275,5.9834275 0 0 0 5.983428,5.9834267 h 6.156026 a 4.0042938,4.0042938 0 0 1 0.08055,0.839982 v 5.293032 L 55.10763,12.75501 A 9.7575894,9.7575894 0 0 0 52.553167,8.3709983 L 43.96925,-0.27045168 A 9.7345762,9.7345762 0 0 0 37.065292,-3.1355929 H 14.05211 A 9.8036158,9.8036158 0 0 0 4.26,6.6565163 V 49.230904 A 9.8036158,9.8036158 0 0 0 14.040603,59 h 31.585592 a 9.8036158,9.8036158 0 0 0 9.79211,-9.79211 V 37.7013 Z"
       class="cls-1" />
    <path
       style="fill:#27607e;stroke-width:1.15065908"
       inkscape:connector-curvature="0"
       id="path12"
       d="m 16.974783,20.510452 h 15.752524 a 2.8766478,2.8766478 0 0 0 0,-5.753295 H 16.974783 a 2.8766478,2.8766478 0 0 0 0,5.753295 z"
       class="cls-1" />
    <path
       style="fill:#27607e;stroke-width:1.15065908"
       inkscape:connector-curvature="0"
       id="path14"
       d="m 16.974783,26.942637 a 2.8766478,2.8766478 0 0 0 0,5.753295 h 24.232882 l 3.716628,-5.304539 A 2.8191148,2.8191148 0 0 0 43.45145,26.96565 Z"
       class="cls-1" />
    <rect
       style="fill:#4dbec2;stroke-width:1.15065908"
       id="rect16"
       transform="rotate(-55.04)"
       height="9.9532003"
       width="24.025761"
       y="54.772964"
       x="-3.9063115"
       class="cls-2" />
    <path
       style="fill:#4dbec2;stroke-width:1.15065908"
       inkscape:connector-curvature="0"
       id="path18"
       d="M 66.246007,10.59177 65.210414,9.8668551 a 4.3379849,4.3379849 0 0 0 -6.052467,1.0701129 l -1.392297,2.036667 8.158173,5.695763 1.392297,-1.990641 A 4.3264783,4.3264783 0 0 0 66.246007,10.59177 Z"
       class="cls-2" />
    <path
       style="fill:#4dbec2;stroke-width:1.15065908"
       inkscape:connector-curvature="0"
       id="path20"
       d="m 40.149058,45.675367 a 0.83998117,0.83998117 0 0 0 1.150659,0.851488 L 49.480903,42.25791 41.32273,36.504614 Z"
       class="cls-2" />
  </g>
</svg>
