<?xml version="1.0" encoding="UTF-8" standalone="no"?>
<svg
   xmlns:dc="http://purl.org/dc/elements/1.1/"
   xmlns:cc="http://creativecommons.org/ns#"
   xmlns:rdf="http://www.w3.org/1999/02/22-rdf-syntax-ns#"
   xmlns:svg="http://www.w3.org/2000/svg"
   xmlns="http://www.w3.org/2000/svg"
   xmlns:sodipodi="http://sodipodi.sourceforge.net/DTD/sodipodi-0.dtd"
   xmlns:inkscape="http://www.inkscape.org/namespaces/inkscape"
   id="Layer_1"
   data-name="Layer 1"
   viewBox="0 0 64 64"
   version="1.1"
   sodipodi:docname="icon_data_table.svg"
   inkscape:version="0.92.3 (unknown)">
  <metadata
     id="metadata37">
    <rdf:RDF>
      <cc:Work
         rdf:about="">
        <dc:format>image/svg+xml</dc:format>
        <dc:type
           rdf:resource="http://purl.org/dc/dcmitype/StillImage" />
      </cc:Work>
    </rdf:RDF>
  </metadata>
  <sodipodi:namedview
     pagecolor="#ffffff"
     bordercolor="#666666"
     borderopacity="1"
     objecttolerance="10"
     gridtolerance="10"
     guidetolerance="10"
     inkscape:pageopacity="0"
     inkscape:pageshadow="2"
     inkscape:window-width="1557"
     inkscape:window-height="1176"
     id="namedview35"
     showgrid="false"
     inkscape:zoom="3.6875"
     inkscape:cx="32"
     inkscape:cy="32"
     inkscape:window-x="43"
     inkscape:window-y="24"
     inkscape:window-maximized="1"
     inkscape:current-layer="Layer_1" />
  <defs
     id="defs4">
    <style
       id="style2">.cls-1{fill:#27607e;}.cls-2{fill:#9a9a9a;stroke:#9a9a9a;stroke-miterlimit:10;stroke-width:1.5px;}</style>
  </defs>
  <title
     id="title6">Icon</title>
  <g
     id="g52"
     transform="matrix(1.1851852,0,0,1.1851852,-5.9259264,-5.9259264)">
    <path
       id="path8"
       d="M 17.25,19.69 H 15.2 l -0.81,-2.12 h -3.73 l -0.77,2.12 h -2 l 3.63,-9.33 h 2 z M 13.78,16 12.5,12.53 11.24,16 Z"
       class="cls-1"
       inkscape:connector-curvature="0"
       style="fill:#27607e" />
    <path
       id="path10"
       d="m 28.58,10.36 h 3.73 a 11,11 0 0 1 1.65,0.09 2.3,2.3 0 0 1 1.69,1.16 2.14,2.14 0 0 1 0.29,1.09 2.17,2.17 0 0 1 -0.36,1.21 2.23,2.23 0 0 1 -0.95,0.82 2.51,2.51 0 0 1 1.31,0.84 2.29,2.29 0 0 1 0.46,1.43 2.73,2.73 0 0 1 -0.3,1.24 2.54,2.54 0 0 1 -0.81,1 2.6,2.6 0 0 1 -1.26,0.44 c -0.32,0 -1.07,0.06 -2.27,0.07 h -3.18 z m 1.88,1.55 v 2.16 h 1.24 c 0.73,0 1.19,0 1.37,0 A 1.24,1.24 0 0 0 33.83,13.74 1,1 0 0 0 34.1,13 1.05,1.05 0 0 0 33.87,12.3 1.1,1.1 0 0 0 33.16,11.97 c -0.19,0 -0.73,0 -1.61,0 z m 0,3.71 v 2.49 h 1.75 A 10.33,10.33 0 0 0 33.5,18.06 1.13,1.13 0 0 0 34.18,17.68 1.11,1.11 0 0 0 34.45,16.89 1.17,1.17 0 0 0 34.24,16.18 1.12,1.12 0 0 0 33.66,15.75 6.46,6.46 0 0 0 32,15.62 Z"
       class="cls-1"
       inkscape:connector-curvature="0"
       style="fill:#27607e" />
    <path
       id="path12"
       d="m 52.38,16.26 1.83,0.57 a 4.09,4.09 0 0 1 -1.4,2.27 4,4 0 0 1 -2.48,0.74 4,4 0 0 1 -3.06,-1.27 4.87,4.87 0 0 1 -1.19,-3.47 5.12,5.12 0 0 1 1.2,-3.62 4.15,4.15 0 0 1 3.16,-1.28 3.88,3.88 0 0 1 2.79,1 3.69,3.69 0 0 1 1,1.72 l -1.86,0.44 a 1.93,1.93 0 0 0 -2,-1.56 2.14,2.14 0 0 0 -1.69,0.74 A 3.66,3.66 0 0 0 48,15 a 3.87,3.87 0 0 0 0.64,2.52 2.05,2.05 0 0 0 1.65,0.75 1.87,1.87 0 0 0 1.29,-0.47 2.81,2.81 0 0 0 0.8,-1.54 z"
       class="cls-1"
       inkscape:connector-curvature="0"
       style="fill:#27607e" />
    <path
       id="path14"
       d="M 14.62,37.84 H 12.83 V 31.1 a 6.23,6.23 0 0 1 -2.31,1.36 V 30.83 A 5.2,5.2 0 0 0 12,30 3.3,3.3 0 0 0 13.13,28.5 h 1.45 z"
       class="cls-1"
       inkscape:connector-curvature="0"
       style="fill:#27607e" />
    <path
       id="path16"
       d="m 35.62,36.18 v 1.66 h -6.27 a 4.44,4.44 0 0 1 0.65,-1.78 11.5,11.5 0 0 1 2,-2.24 12.51,12.51 0 0 0 1.48,-1.53 2,2 0 0 0 0.37,-1.09 1.25,1.25 0 0 0 -0.32,-0.92 1.38,1.38 0 0 0 -1.78,0 1.73,1.73 0 0 0 -0.38,1.12 l -1.79,-0.18 a 2.91,2.91 0 0 1 1,-2.11 3.35,3.35 0 0 1 2.1,-0.65 3,3 0 0 1 2.17,0.75 2.41,2.41 0 0 1 0.79,1.85 3.23,3.23 0 0 1 -0.22,1.2 4.66,4.66 0 0 1 -0.72,1.19 12.11,12.11 0 0 1 -1.17,1.19 c -0.57,0.52 -0.92,0.86 -1.07,1 a 3,3 0 0 0 -0.37,0.5 z"
       class="cls-1"
       inkscape:connector-curvature="0"
       style="fill:#27607e" />
    <path
       id="path18"
       d="m 47,35.36 1.73,-0.21 a 1.7,1.7 0 0 0 0.45,1 1.22,1.22 0 0 0 0.88,0.35 1.2,1.2 0 0 0 0.94,-0.4 1.65,1.65 0 0 0 0.41,-1.1 1.54,1.54 0 0 0 -0.36,-1.07 1.18,1.18 0 0 0 -0.89,-0.39 3.06,3.06 0 0 0 -0.82,0.13 l 0.2,-1.45 A 1.57,1.57 0 0 0 50.64,31.9 1.11,1.11 0 0 0 51,31 a 1,1 0 0 0 -1,-1 1.1,1.1 0 0 0 -0.78,0.32 1.49,1.49 0 0 0 -0.4,0.93 l -1.64,-0.28 a 3.59,3.59 0 0 1 0.51,-1.35 2.48,2.48 0 0 1 1,-0.8 3.32,3.32 0 0 1 1.39,-0.29 2.79,2.79 0 0 1 2.12,0.84 2.14,2.14 0 0 1 -0.69,3.52 2.15,2.15 0 0 1 1.28,0.77 2.21,2.21 0 0 1 0.45,1.34 2.78,2.78 0 0 1 -0.9,2.09 3.34,3.34 0 0 1 -4.33,0.14 A 2.84,2.84 0 0 1 47,35.36 Z"
       class="cls-1"
       inkscape:connector-curvature="0"
       style="fill:#27607e" />
    <path
       id="path20"
       d="m 14.62,56 h -1.79 v -6.74 a 6.08,6.08 0 0 1 -2.31,1.35 V 49 A 5,5 0 0 0 12,48.12 3.27,3.27 0 0 0 13.13,46.63 h 1.45 z"
       class="cls-1"
       inkscape:connector-curvature="0"
       style="fill:#27607e" />
    <path
       id="path22"
       d="M 35.62,54.33 V 56 H 29.35 A 4.49,4.49 0 0 1 30,54.21 11.8,11.8 0 0 1 32,52 a 13.55,13.55 0 0 0 1.48,-1.52 2,2 0 0 0 0.37,-1.1 1.27,1.27 0 0 0 -0.32,-0.92 1.23,1.23 0 0 0 -0.89,-0.32 1.16,1.16 0 0 0 -0.89,0.34 1.71,1.71 0 0 0 -0.38,1.12 l -1.79,-0.18 a 2.93,2.93 0 0 1 1,-2.12 3.34,3.34 0 0 1 2.1,-0.64 3.05,3.05 0 0 1 2.17,0.74 2.44,2.44 0 0 1 0.79,1.85 3.23,3.23 0 0 1 -0.22,1.2 4.88,4.88 0 0 1 -0.72,1.2 13.35,13.35 0 0 1 -1.17,1.19 14.71,14.71 0 0 0 -1.07,1 3,3 0 0 0 -0.37,0.49 z"
       class="cls-1"
       inkscape:connector-curvature="0"
       style="fill:#27607e" />
    <path
       id="path24"
       d="m 47,53.52 1.73,-0.21 a 1.67,1.67 0 0 0 0.45,1 1.18,1.18 0 0 0 0.88,0.35 1.2,1.2 0 0 0 0.93,-0.42 1.64,1.64 0 0 0 0.38,-1.13 1.52,1.52 0 0 0 -0.36,-1.07 1.18,1.18 0 0 0 -0.89,-0.39 3.06,3.06 0 0 0 -0.82,0.13 l 0.2,-1.46 a 1.57,1.57 0 0 0 1.1,-0.31 1.12,1.12 0 0 0 0.39,-0.89 1,1 0 0 0 -1,-1 1.06,1.06 0 0 0 -0.78,0.32 1.49,1.49 0 0 0 -0.4,0.93 l -1.64,-0.28 a 3.65,3.65 0 0 1 0.51,-1.36 2.37,2.37 0 0 1 1,-0.79 3.18,3.18 0 0 1 1.39,-0.29 2.79,2.79 0 0 1 2.12,0.84 2.13,2.13 0 0 1 -0.71,3.51 2.2,2.2 0 0 1 1.28,0.77 2.24,2.24 0 0 1 0.48,1.45 2.81,2.81 0 0 1 -0.9,2.09 3.06,3.06 0 0 1 -2.23,0.87 3.12,3.12 0 0 1 -2.1,-0.73 A 2.88,2.88 0 0 1 47,53.52 Z"
       class="cls-1"
       inkscape:connector-curvature="0"
       style="fill:#27607e" />
    <line
       id="line26"
       y2="59"
       x2="22.459999"
       y1="5"
       x1="22.459999"
       class="cls-2"
       style="fill:#9a9a9a;stroke:#9a9a9a;stroke-width:1.5px;stroke-miterlimit:10" />
    <line
       id="line28"
       y2="59"
       x2="41.540001"
       y1="5"
       x1="41.540001"
       class="cls-2"
       style="fill:#9a9a9a;stroke:#9a9a9a;stroke-width:1.5px;stroke-miterlimit:10" />
    <line
       id="line30"
       y2="23.389999"
       x2="5"
       y1="23.389999"
       x1="59"
       class="cls-2"
       style="fill:#9a9a9a;stroke:#9a9a9a;stroke-width:1.5px;stroke-miterlimit:10" />
    <line
       id="line32"
       y2="42.470001"
       x2="5"
       y1="42.470001"
       x1="59"
       class="cls-2"
       style="fill:#9a9a9a;stroke:#9a9a9a;stroke-width:1.5px;stroke-miterlimit:10" />
  </g>
</svg>
