<?xml version="1.0" encoding="UTF-8" standalone="no"?>
<svg
   xmlns:dc="http://purl.org/dc/elements/1.1/"
   xmlns:cc="http://creativecommons.org/ns#"
   xmlns:rdf="http://www.w3.org/1999/02/22-rdf-syntax-ns#"
   xmlns:svg="http://www.w3.org/2000/svg"
   xmlns="http://www.w3.org/2000/svg"
   xmlns:sodipodi="http://sodipodi.sourceforge.net/DTD/sodipodi-0.dtd"
   xmlns:inkscape="http://www.inkscape.org/namespaces/inkscape"
   id="Layer_1"
   data-name="Layer 1"
   viewBox="0 0 64 64"
   version="1.1"
   sodipodi:docname="icon_document_viewer.svg"
   inkscape:version="0.92.3 (unknown)">
  <metadata
     id="metadata13">
    <rdf:RDF>
      <cc:Work
         rdf:about="">
        <dc:format>image/svg+xml</dc:format>
        <dc:type
           rdf:resource="http://purl.org/dc/dcmitype/StillImage" />
      </cc:Work>
    </rdf:RDF>
  </metadata>
  <sodipodi:namedview
     pagecolor="#ffffff"
     bordercolor="#666666"
     borderopacity="1"
     objecttolerance="10"
     gridtolerance="10"
     guidetolerance="10"
     inkscape:pageopacity="0"
     inkscape:pageshadow="2"
     inkscape:window-width="1557"
     inkscape:window-height="1176"
     id="namedview11"
     showgrid="false"
     inkscape:zoom="3.6875"
     inkscape:cx="32"
     inkscape:cy="32"
     inkscape:window-x="43"
     inkscape:window-y="24"
     inkscape:window-maximized="1"
     inkscape:current-layer="Layer_1" />
  <defs
     id="defs4">
    <style
       id="style2">.cls-1{fill:#27607e;}</style>
  </defs>
  <title
     id="title6">Icon</title>
  <path
     class="cls-1"
     d="M 55.402017,11.851863 46.555853,2.9511244 A 10.008261,10.002961 0 0 0 39.440975,1.3910008e-5 H 15.724718 A 10.091268,10.085924 0 0 0 5.6453071,10.085938 V 53.93778 A 10.091268,10.085924 0 0 0 15.712859,64 H 48.263423 A 10.103126,10.097776 0 0 0 58.354691,53.914077 V 18.962973 a 10.031977,10.026664 0 0 0 -2.952674,-7.11111 z m -2.940816,42.062214 a 4.1977776,4.1955546 0 0 1 -4.197778,4.159999 H 15.712859 A 4.1977776,4.1955546 0 0 1 11.52694,53.890373 V 10.03853 a 4.1977776,4.1955546 0 0 1 4.185919,-4.1125911 h 23.716258 c 0.154156,0 0.296453,0 0.438751,0 v 5.9259241 a 6.166227,6.1629616 0 0 0 6.166227,6.162962 h 6.344099 a 4.1147707,4.1125917 0 0 1 0.09486,0.865185 z M 15.784008,21.404454 a 2.9526741,2.9511105 0 0 1 2.952674,-2.95111 h 16.221921 a 2.9645322,2.9629623 0 1 1 0,5.925924 H 18.736682 a 2.9526741,2.9511105 0 0 1 -2.952674,-2.974814 z m 33.202761,12.527404 a 2.940816,2.9392587 0 0 1 -2.940816,2.951111 H 18.772257 a 2.9645322,2.9629623 0 0 1 0,-5.925924 h 27.273696 a 2.9526741,2.9511105 0 0 1 2.9171,2.974813 z m 0,12.527406 a 2.940816,2.9392587 0 0 1 -2.940816,2.95111 H 18.772257 a 2.9645325,2.9629626 0 1 1 0,-5.925925 h 27.273696 a 2.940816,2.9392587 0 0 1 2.9171,2.974815 z"
     id="path8"
     inkscape:connector-curvature="0"
     style="fill:#27607e;stroke-width:1.18549895" />
</svg>
