<?xml version="1.0" encoding="UTF-8" standalone="no"?>
<svg
   xmlns:dc="http://purl.org/dc/elements/1.1/"
   xmlns:cc="http://creativecommons.org/ns#"
   xmlns:rdf="http://www.w3.org/1999/02/22-rdf-syntax-ns#"
   xmlns:svg="http://www.w3.org/2000/svg"
   xmlns="http://www.w3.org/2000/svg"
   xmlns:sodipodi="http://sodipodi.sourceforge.net/DTD/sodipodi-0.dtd"
   xmlns:inkscape="http://www.inkscape.org/namespaces/inkscape"
   id="Layer_1"
   data-name="Layer 1"
   viewBox="0 0 64 64"
   version="1.1"
   sodipodi:docname="icon_filter_builder.svg"
   inkscape:version="0.92.3 (unknown)">
  <metadata
     id="metadata16">
    <rdf:RDF>
      <cc:Work
         rdf:about="">
        <dc:format>image/svg+xml</dc:format>
        <dc:type
           rdf:resource="http://purl.org/dc/dcmitype/StillImage" />
      </cc:Work>
    </rdf:RDF>
  </metadata>
  <sodipodi:namedview
     pagecolor="#ffffff"
     bordercolor="#666666"
     borderopacity="1"
     objecttolerance="10"
     gridtolerance="10"
     guidetolerance="10"
     inkscape:pageopacity="0"
     inkscape:pageshadow="2"
     inkscape:window-width="640"
     inkscape:window-height="480"
     id="namedview14"
     showgrid="false"
     inkscape:zoom="3.6875"
     inkscape:cx="32"
     inkscape:cy="32"
     inkscape:window-x="696"
     inkscape:window-y="210"
     inkscape:window-maximized="0"
     inkscape:current-layer="Layer_1" />
  <defs
     id="defs4">
    <style
       id="style2">.cls-1{fill:#27607e;}</style>
  </defs>
  <title
     id="title6">Icon</title>
  <g
     id="_2Z2roh.tif"
     data-name="2Z2roh.tif"
     transform="matrix(1.1857857,0,0,1.1857857,-5.9009431,-5.9707516)">
    <path
       class="cls-1"
       d="M 58,5.6 A 1.18,1.18 0 0 0 57.13,5 H 57 6.82 v 0 a 1.15,1.15 0 0 0 -1,1.15 c 0,1 0,2 0,3 a 1.18,1.18 0 0 0 0.41,0.92 l 5.24,4.93 8.53,8.1 4.71,4.47 a 0.52,0.52 0 0 1 0.19,0.42 q 0,9.18 0,18.37 c 0,0.5 0.34,0.71 0.71,1.11 0.52,0.55 0.89,0.93 1.36,1.4 3.38,3.37 6.75,6.75 10.35,9.94 a 1,1 0 0 0 0.87,0.16 1.09,1.09 0 0 0 1,-1.08 V 27.94 a 0.38,0.38 0 0 1 0.13,-0.31 l 1.13,-1.07 8.14,-7.75 5.82,-5.52 3.35,-3.18 A 1.31,1.31 0 0 0 58.21,9.49 V 5.87 C 58.11,5.78 58.07,5.69 58,5.6 Z"
       id="path8"
       inkscape:connector-curvature="0"
       style="fill:#27607e" />
    <path
       class="cls-1"
       d="M 58.15,5.87 C 58.15,5.78 58.07,5.69 58.02,5.6 A 1.18,1.18 0 0 0 57.13,5 H 57 58.16 Z"
       id="path10"
       inkscape:connector-curvature="0"
       style="fill:#27607e" />
  </g>
</svg>
