<?xml version="1.0" encoding="UTF-8" standalone="no"?>
<svg
   xmlns:dc="http://purl.org/dc/elements/1.1/"
   xmlns:cc="http://creativecommons.org/ns#"
   xmlns:rdf="http://www.w3.org/1999/02/22-rdf-syntax-ns#"
   xmlns:svg="http://www.w3.org/2000/svg"
   xmlns="http://www.w3.org/2000/svg"
   xmlns:sodipodi="http://sodipodi.sourceforge.net/DTD/sodipodi-0.dtd"
   xmlns:inkscape="http://www.inkscape.org/namespaces/inkscape"
   id="Layer_1"
   data-name="Layer 1"
   viewBox="0 0 64 64"
   version="1.1"
   sodipodi:docname="Icon_Line_Chart.svg"
   inkscape:version="0.92.3 (unknown)">
  <metadata
     id="metadata166">
    <rdf:RDF>
      <cc:Work
         rdf:about="">
        <dc:format>image/svg+xml</dc:format>
        <dc:type
           rdf:resource="http://purl.org/dc/dcmitype/StillImage" />
      </cc:Work>
    </rdf:RDF>
  </metadata>
  <sodipodi:namedview
     pagecolor="#ffffff"
     bordercolor="#666666"
     borderopacity="1"
     objecttolerance="10"
     gridtolerance="10"
     guidetolerance="10"
     inkscape:pageopacity="0"
     inkscape:pageshadow="2"
     inkscape:window-width="1557"
     inkscape:window-height="1176"
     id="namedview164"
     showgrid="false"
     inkscape:zoom="3.6875"
     inkscape:cx="32"
     inkscape:cy="32"
     inkscape:window-x="43"
     inkscape:window-y="24"
     inkscape:window-maximized="1"
     inkscape:current-layer="Layer_1" />
  <defs
     id="defs107">
    <style
       id="style105">.cls-1{fill:#27607e;}.cls-1,.cls-2{stroke:#27607e;}.cls-1,.cls-2,.cls-3,.cls-4,.cls-5{stroke-miterlimit:10;}.cls-1,.cls-2,.cls-5{stroke-width:1.5px;}.cls-2{fill:none;}.cls-3,.cls-4{fill:#666768;stroke:#666768;}.cls-3{stroke-width:0.5px;}.cls-5{fill:#9a9a9a;stroke:#9a9a9a;}</style>
  </defs>
  <title
     id="title109">Icon</title>
  <g
     id="g282"
     transform="matrix(1.1471038,0,0,1.1488383,-4.7670668,-4.2803525)">
    <circle
       id="circle111"
       r="0.88999999"
       cy="18.530001"
       cx="11.15"
       class="cls-1"
       style="fill:#27607e;stroke:#27607e;stroke-width:1.5px;stroke-miterlimit:10" />
    <path
       id="path113"
       d="m 20.47,39.61 a 0.89,0.89 0 1 1 -0.89,-0.89 0.89,0.89 0 0 1 0.89,0.89 z"
       class="cls-1"
       inkscape:connector-curvature="0"
       style="fill:#27607e;stroke:#27607e;stroke-width:1.5px;stroke-miterlimit:10" />
    <path
       id="path115"
       d="m 37.34,27.26 a 0.9,0.9 0 1 1 -0.89,-0.89 0.89,0.89 0 0 1 0.89,0.89 z"
       class="cls-1"
       inkscape:connector-curvature="0"
       style="fill:#27607e;stroke:#27607e;stroke-width:1.5px;stroke-miterlimit:10" />
    <circle
       id="circle117"
       r="0.88999999"
       cy="18.530001"
       cx="44.880001"
       class="cls-1"
       style="fill:#27607e;stroke:#27607e;stroke-width:1.5px;stroke-miterlimit:10" />
    <path
       id="path119"
       d="m 54.2,22.51 a 0.89,0.89 0 1 1 -0.89,-0.89 0.89,0.89 0 0 1 0.89,0.89 z"
       class="cls-1"
       inkscape:connector-curvature="0"
       style="fill:#27607e;stroke:#27607e;stroke-width:1.5px;stroke-miterlimit:10" />
    <path
       id="path121"
       d="M 28.9,31 A 0.89,0.89 0 1 1 28.01,30.11 0.89,0.89 0 0 1 28.9,31 Z"
       class="cls-1"
       inkscape:connector-curvature="0"
       style="fill:#27607e;stroke:#27607e;stroke-width:1.5px;stroke-miterlimit:10" />
    <line
       id="line123"
       y2="38.84"
       x2="19.15"
       y1="19.18"
       x1="11.75"
       class="cls-2"
       style="fill:none;stroke:#27607e;stroke-width:1.5px;stroke-miterlimit:10" />
    <line
       id="line125"
       y2="31.610001"
       x2="27.120001"
       y1="39.610001"
       x1="20.469999"
       class="cls-2"
       style="fill:none;stroke:#27607e;stroke-width:1.5px;stroke-miterlimit:10" />
    <line
       id="line127"
       y2="27.75"
       x2="35.540001"
       y1="30.6"
       x1="28.790001"
       class="cls-2"
       style="fill:none;stroke:#27607e;stroke-width:1.5px;stroke-miterlimit:10" />
    <line
       id="line129"
       y2="19.18"
       x2="43.990002"
       y1="26.68"
       x1="37.119999"
       class="cls-2"
       style="fill:none;stroke:#27607e;stroke-width:1.5px;stroke-miterlimit:10" />
    <line
       id="line131"
       y2="21.91"
       x2="52.66"
       y1="18.530001"
       x1="45.77"
       class="cls-2"
       style="fill:none;stroke:#27607e;stroke-width:1.5px;stroke-miterlimit:10" />
    <rect
       id="rect133"
       height="50.599998"
       width="1.11"
       y="6.6199999"
       x="6.3699999"
       class="cls-3"
       style="fill:#666768;stroke:#666768;stroke-width:0.5px;stroke-miterlimit:10" />
    <rect
       id="rect135"
       height="1.11"
       width="50.599998"
       y="56.099998"
       x="6.3699999"
       class="cls-3"
       style="fill:#666768;stroke:#666768;stroke-width:0.5px;stroke-miterlimit:10" />
    <polygon
       id="polygon137"
       points="6.93,4.5 8.77,7.26 5.09,7.26 "
       class="cls-4"
       style="fill:#666768;stroke:#666768;stroke-miterlimit:10" />
    <polygon
       id="polygon139"
       points="58.91,56.66 56.15,58.5 56.15,54.81 "
       class="cls-4"
       style="fill:#666768;stroke:#666768;stroke-miterlimit:10" />
    <path
       id="path141"
       d="m 12.06,43.83 a 0.89,0.89 0 1 1 -0.89,-0.89 0.89,0.89 0 0 1 0.89,0.89 z"
       class="cls-5"
       inkscape:connector-curvature="0"
       style="fill:#9a9a9a;stroke:#9a9a9a;stroke-width:1.5px;stroke-miterlimit:10" />
    <path
       id="path143"
       d="m 28.9,48.05 a 0.89,0.89 0 1 1 -0.89,-0.89 0.89,0.89 0 0 1 0.89,0.89 z"
       class="cls-5"
       inkscape:connector-curvature="0"
       style="fill:#9a9a9a;stroke:#9a9a9a;stroke-width:1.5px;stroke-miterlimit:10" />
    <path
       id="path145"
       d="m 37.35,39.4 a 0.89,0.89 0 1 1 -0.89,-0.89 0.89,0.89 0 0 1 0.89,0.89 z"
       class="cls-5"
       inkscape:connector-curvature="0"
       style="fill:#9a9a9a;stroke:#9a9a9a;stroke-width:1.5px;stroke-miterlimit:10" />
    <circle
       id="circle147"
       r="0.88999999"
       cy="48.049999"
       cx="44.880001"
       class="cls-5"
       style="fill:#9a9a9a;stroke:#9a9a9a;stroke-width:1.5px;stroke-miterlimit:10" />
    <path
       id="path149"
       d="m 54.2,43.83 a 0.89,0.89 0 1 1 -0.89,-0.89 0.89,0.89 0 0 1 0.89,0.89 z"
       class="cls-5"
       inkscape:connector-curvature="0"
       style="fill:#9a9a9a;stroke:#9a9a9a;stroke-width:1.5px;stroke-miterlimit:10" />
    <line
       id="line151"
       y2="36.029999"
       x2="18.959999"
       y1="43.16"
       x1="11.75"
       class="cls-5"
       style="fill:#9a9a9a;stroke:#9a9a9a;stroke-width:1.5px;stroke-miterlimit:10" />
    <line
       id="line153"
       y2="47.360001"
       x2="27.450001"
       y1="36.029999"
       x1="20.200001"
       class="cls-5"
       style="fill:#9a9a9a;stroke:#9a9a9a;stroke-width:1.5px;stroke-miterlimit:10" />
    <line
       id="line155"
       y2="39.869999"
       x2="35.709999"
       y1="47.619999"
       x1="28.790001"
       class="cls-5"
       style="fill:#9a9a9a;stroke:#9a9a9a;stroke-width:1.5px;stroke-miterlimit:10" />
    <line
       id="line157"
       y2="47.360001"
       x2="44.32"
       y1="39.630001"
       x1="37.32"
       class="cls-5"
       style="fill:#9a9a9a;stroke:#9a9a9a;stroke-width:1.5px;stroke-miterlimit:10" />
    <line
       id="line159"
       y2="44.43"
       x2="52.66"
       y1="47.619999"
       x1="45.66"
       class="cls-5"
       style="fill:#9a9a9a;stroke:#9a9a9a;stroke-width:1.5px;stroke-miterlimit:10" />
    <path
       id="path161"
       d="m 20.47,35.4 a 0.89,0.89 0 1 1 -0.89,-0.89 0.89,0.89 0 0 1 0.89,0.89 z"
       class="cls-5"
       inkscape:connector-curvature="0"
       style="fill:#9a9a9a;stroke:#9a9a9a;stroke-width:1.5px;stroke-miterlimit:10" />
  </g>
</svg>
