<?xml version="1.0" encoding="UTF-8" standalone="no"?>
<svg
   xmlns:dc="http://purl.org/dc/elements/1.1/"
   xmlns:cc="http://creativecommons.org/ns#"
   xmlns:rdf="http://www.w3.org/1999/02/22-rdf-syntax-ns#"
   xmlns:svg="http://www.w3.org/2000/svg"
   xmlns="http://www.w3.org/2000/svg"
   xmlns:sodipodi="http://sodipodi.sourceforge.net/DTD/sodipodi-0.dtd"
   xmlns:inkscape="http://www.inkscape.org/namespaces/inkscape"
   viewBox="0 0 64 64"
   version="1.1"
   id="svg78"
   sodipodi:docname="icon_map.svg"
   inkscape:version="0.92.3 (unknown)">
  <metadata
     id="metadata82">
    <rdf:RDF>
      <cc:Work
         rdf:about="">
        <dc:format>image/svg+xml</dc:format>
        <dc:type
           rdf:resource="http://purl.org/dc/dcmitype/StillImage" />
      </cc:Work>
    </rdf:RDF>
  </metadata>
  <sodipodi:namedview
     pagecolor="#ffffff"
     bordercolor="#666666"
     borderopacity="1"
     objecttolerance="10"
     gridtolerance="10"
     guidetolerance="10"
     inkscape:pageopacity="0"
     inkscape:pageshadow="2"
     inkscape:window-width="1557"
     inkscape:window-height="1176"
     id="namedview80"
     showgrid="false"
     inkscape:zoom="3.6875"
     inkscape:cx="32"
     inkscape:cy="32"
     inkscape:window-x="43"
     inkscape:window-y="24"
     inkscape:window-maximized="1"
     inkscape:current-layer="svg78" />
  <defs
     id="defs21">
    <style
       id="style2">.cls-1{isolation:isolate;}.cls-2{fill:#27607e;stroke:#27607e;stroke-miterlimit:10;stroke-width:2px;}.cls-3{fill:url(#linear-gradient);}.cls-4{mix-blend-mode:darken;fill:url(#linear-gradient-2);}.cls-5{fill:url(#linear-gradient-3);}.cls-6{fill:#fff;fill-rule:evenodd;}</style>
    <linearGradient
       id="linear-gradient"
       x1="42.27"
       y1="31.43"
       x2="20.77"
       y2="31.43"
       gradientUnits="userSpaceOnUse">
      <stop
         offset="0.34"
         stop-color="#54c8cd"
         stop-opacity="0.02"
         id="stop4" />
      <stop
         offset="1"
         stop-color="#001400"
         stop-opacity="0.3"
         id="stop6" />
    </linearGradient>
    <linearGradient
       id="linear-gradient-2"
       x1="5.17"
       y1="31.56"
       x2="18.9"
       y2="31.56"
       gradientUnits="userSpaceOnUse">
      <stop
         offset="0.06"
         stop-color="#54c8cd"
         stop-opacity="0"
         id="stop9" />
      <stop
         offset="1"
         stop-color="#001400"
         stop-opacity="0.3"
         id="stop11" />
    </linearGradient>
    <linearGradient
       id="linear-gradient-3"
       x1="43.63"
       y1="30.83"
       x2="58.62"
       y2="30.83"
       gradientUnits="userSpaceOnUse">
      <stop
         offset="0.02"
         stop-color="#fff"
         stop-opacity="0.14"
         id="stop14" />
      <stop
         offset="0.34"
         stop-color="#54c8cd"
         stop-opacity="0.02"
         id="stop16" />
      <stop
         offset="1"
         stop-color="#2a617e"
         stop-opacity="0.3"
         id="stop18" />
    </linearGradient>
  </defs>
  <title
     id="title23">Icon</title>
  <g
     class="cls-1"
     id="g76"
     transform="matrix(1.0876738,0,0,1.0889499,-2.8055616,-2.0692027)"
     style="isolation:isolate">
    <g
       id="Layer_1"
       data-name="Layer 1">
      <polygon
         class="cls-2"
         points="20.33,53.1 3.58,46.26 3.58,9.9 20.33,16.74 42.46,9.9 60.42,15.66 60.42,52.02 42.46,46.26 "
         id="polygon25"
         style="fill:#27607e;stroke:#27607e;stroke-width:2px;stroke-miterlimit:10" />
      <polygon
         class="cls-3"
         points="20.33,52.66 20.33,17.09 42.46,10.2 42.46,45.77 "
         id="polygon27"
         style="fill:url(#linear-gradient)" />
      <polygon
         class="cls-4"
         points="20.33,52.66 20.33,17.09 4.09,10.46 4.09,45.82 "
         id="polygon29"
         style="mix-blend-mode:darken;fill:url(#linear-gradient-2)" />
      <polygon
         class="cls-5"
         points="60.06,51.47 60.18,16.01 42.46,10.2 42.46,45.84 "
         id="polygon31"
         style="fill:url(#linear-gradient-3)" />
      <path
         class="cls-6"
         d="m 19.29,23.06 h 0.27 c 0.4,0.24 1.32,0.15 0.92,0.87 a 2,2 0 0 0 -1.34,0 c -0.34,-0.36 0.29,-0.34 0.15,-0.87 z"
         id="path33"
         inkscape:connector-curvature="0"
         style="fill:#ffffff;fill-rule:evenodd" />
      <path
         class="cls-6"
         d="m 32.76,26.8 c -0.54,-0.52 0.78,-0.95 0.13,-1 0,-0.49 0.75,-0.11 0.68,-0.43 0,-0.62 -0.41,0.24 -0.82,0.22 -0.31,-0.78 0.61,-1.4 0.27,-1.77 -1.09,1 -0.24,2.26 -1.35,3.21 0.09,-0.47 -0.14,-0.44 -0.14,-0.77 -0.43,0.13 -0.31,0.56 -0.82,0.64 A 9.35,9.35 0 0 1 33.15,22 c 0.75,0.07 1.91,-0.45 2,0.52 a 1.72,1.72 0 0 1 -0.81,0.47 c 0,0.33 0,0.5 0.27,0.44 a 6.43,6.43 0 0 1 2.84,-2.46 c 0.4,-0.23 -0.14,-0.25 0,-0.55 0.57,-0.23 0.69,0.17 1.09,0.2 a 1.84,1.84 0 0 1 0.25,-1.86 c 0.46,-0.24 0.18,0.5 0.68,0.22 0.5,-0.28 0.35,-1 1.2,-1 0.35,-0.11 -0.19,-0.2 0,-0.55 0.78,-0.6 1.76,-1 2.27,-1.7 0.46,0.32 1.19,0.39 1.5,0.9 -0.09,0.58 -0.75,0.61 -0.92,1.11 0.6,-0.2 1.48,-0.25 1.76,0.29 0.26,0 0.1,-0.52 0.53,-0.35 a 1.16,1.16 0 0 1 0.57,1.16 0.67,0.67 0 0 1 0.81,0.16 c 0.46,0.16 0.4,-0.32 0.66,-0.38 1,0.26 1.07,1.22 2.32,1.58 0.17,0.26 0.06,0.24 0,0.41 1.65,0.66 3.52,2.54 3.59,4.19 a 2.59,2.59 0 0 1 -0.7,-1 c -0.56,-0.34 -0.22,0.51 -0.37,0.64 -0.75,0 -1.29,-0.39 -2,-0.36 0.24,1.32 -0.67,0.93 -0.89,1.58 -0.28,-1 0.2,-2 0.88,-2 0,-0.21 -0.41,-0.26 -0.42,-0.49 -0.46,-0.24 -0.49,0.17 -0.66,0.37 -0.93,-0.73 -1.86,-0.64 -2.16,0 0.1,0.34 0.47,0.48 0.57,0.82 -0.08,1.27 -0.9,1.62 -1.72,2.09 0.11,0.29 0.45,0.6 0.16,0.84 -0.54,-0.23 -0.28,-1.19 -1.25,-0.94 0.86,0.87 0,3.21 -1.59,2.86 -0.05,0.67 0.65,0.54 0.44,1.35 -0.22,0 -0.23,0.14 -0.41,0.15 -0.47,0.13 -0.18,-0.55 -0.69,-0.35 -0.51,0.69 1.17,1.57 0.58,1.86 a 7.71,7.71 0 0 0 3.34,0.71 c -1.91,0.59 -4.92,-0.21 -5,-2.43 0.34,0.3 0.37,1 1,1 0,-0.59 -0.34,-0.82 -0.3,-1.47 -0.38,-0.17 -0.82,-0.25 -0.85,-0.83 -0.88,0.43 -1.79,1.5 -1.2,2.29 -1.23,0 -1.1,-1.59 -2,-1.93 a 2.94,2.94 0 0 1 -2.34,0.13 c -0.4,0.34 0.24,0.38 0.14,0.77 A 1.81,1.81 0 0 1 37.71,30 3.85,3.85 0 0 1 35.8,32.08 c 0,0.29 0.58,-0.17 0.83,-0.18 -0.17,1.07 -1,1.73 -1.51,2.64 -0.07,0.66 0.26,0.75 0.15,1.45 -1.09,1.1 -0.68,3 -2.9,3.84 -0.77,-1.21 -0.77,-3.31 -1.12,-4.58 -0.44,-0.63 -1.59,0.61 -2.62,0.86 -1.59,-0.62 -0.58,-3 0.71,-4.42 -0.14,-0.12 -0.46,0 -0.55,-0.17 a 1,1 0 0 1 1.1,-1.3 c 0,-0.42 -0.1,-0.78 -0.55,-0.59 A 4.65,4.65 0 0 0 31.12,27 c 0.43,0.26 1.05,0.06 1.64,-0.2 z m -0.13,3.08 c -0.13,-0.51 -0.36,-0.87 -1,-0.68 -0.06,0.58 0.58,0.17 0.68,0.52 -0.2,0.3 -0.24,0.69 -0.55,0.93 0.25,-0.76 0,-0.9 -0.54,-0.85 0,0.25 0.13,0.62 -0.28,0.67 a 1.15,1.15 0 0 1 0.14,-0.75 2.21,2.21 0 0 0 -1.23,1.64 c 0.56,-0.32 1.07,-0.68 1.64,-1 v 0.69 a 27.74,27.74 0 0 0 3,-1.17 v -0.55 c -0.57,0.27 -1.14,0.54 -1.23,0.11 0.14,-0.72 1.24,-0.9 1.78,-1 0.22,-0.51 -0.53,-0.47 -0.42,-0.93 0,0.47 -0.52,0.75 -0.68,0.43 a 5.34,5.34 0 0 1 -1.31,1.94 z"
         id="path35"
         inkscape:connector-curvature="0"
         style="fill:#ffffff;fill-rule:evenodd" />
      <path
         class="cls-6"
         d="m 15.79,23.07 c -0.46,0.6 0.49,0.6 0.64,1.09 0.31,0 -0.16,-0.38 0,-0.69 0.5,0 0.23,0.71 0.66,0.78 -0.27,0.55 -1.17,0.47 -1.63,0 0.4,-0.64 -0.4,-0.51 -0.66,-0.73 0.13,-0.43 0.39,-0.64 0.99,-0.45 z"
         id="path37"
         inkscape:connector-curvature="0"
         style="fill:#ffffff;fill-rule:evenodd" />
      <path
         class="cls-6"
         d="m 18.2,23.49 c 0.48,0.12 0.85,0.31 0.93,0.82 0.42,0.05 0.48,-0.27 0.95,-0.2 0,0.27 0.36,0.13 0.26,0.52 -0.78,0.75 -1.72,-0.13 -2.16,0.1 0.14,-0.22 0.14,-0.55 0.41,-0.27 C 18.76,23.84 18,24.14 18.2,23.49 Z"
         id="path39"
         inkscape:connector-curvature="0"
         style="fill:#ffffff;fill-rule:evenodd" />
      <path
         class="cls-6"
         d="m 38.39,16.93 c 0.17,0 0.28,0.09 0.27,0.33 a 3.62,3.62 0 0 0 -1.59,3 c -1.34,0.08 0.28,-2.85 1.32,-3.33 z"
         id="path41"
         inkscape:connector-curvature="0"
         style="fill:#ffffff;fill-rule:evenodd" />
      <path
         class="cls-6"
         d="m 18.06,23.76 v 0.83 a 0.67,0.67 0 0 1 -0.8,-0.74 c 0.31,0.03 0.39,-0.2 0.8,-0.09 z"
         id="path43"
         inkscape:connector-curvature="0"
         style="fill:#ffffff;fill-rule:evenodd" />
      <path
         class="cls-6"
         d="m 9,24.52 c 0.17,0 0.26,-0.17 0.69,0.3 0.35,0.05 -0.52,-0.81 -0.38,-1.16 0.95,-0.56 2.55,1.75 3.93,2.49 0.75,-0.23 1.32,0.12 2.17,0.72 0.08,-0.15 0,-0.42 0.42,-0.46 -0.3,-0.22 -0.66,-0.4 -0.66,-0.85 -0.32,0 -0.38,0.52 -0.69,0.08 0,-0.74 0.17,-0.77 0,-1.38 1,0.28 1.29,1 2,1.44 0.16,-0.1 0,-0.31 0.29,-0.52 0.33,0.51 0.27,1.62 1,2 -0.56,0.28 -1.72,-0.44 -2.17,0.14 0.08,0.37 0.78,-0.2 0.8,0.42 0.16,0 0.15,-0.2 0.15,-0.4 0.58,0.09 1,0.3 1.48,0.4 0.14,0 0.17,-0.11 0.28,-0.13 a 9.38,9.38 0 0 1 -0.22,-2.36 0.63,0.63 0 0 1 0.81,-0.14 c -0.1,0.38 -0.4,0.54 -0.56,0.84 0.2,0.65 0.69,1 0.78,1.78 a 0.76,0.76 0 0 0 0.28,-0.71 c 0.23,0 0.45,0 0.68,-0.06 a 1,1 0 0 0 0,0.83 c -0.9,0.17 -1.39,1.45 -1.94,2.3 0.35,0.91 1.78,0.68 2,1.69 0.12,-0.31 0,-0.73 0.42,-1 -0.32,-0.5 -0.08,-0.8 -0.24,-1.48 0.44,-0.35 0.68,0 1.22,0.08 0.07,0.23 -0.18,0.85 0.12,0.81 0.3,-0.04 0.24,-0.36 0.28,-0.61 0.55,0.42 0.81,1.18 1.33,1.6 -0.35,0.48 -1.09,0.65 -1.64,0.94 0.08,0.39 0.29,-0.19 0.54,-0.12 0.34,1.14 -2,0.73 -1.53,2.08 0,0.48 -0.47,0.51 -0.56,0.9 -0.13,0.59 0.25,0.62 0.25,1.07 a 1.85,1.85 0 0 0 -2.89,0.39 c -0.07,0.47 0.4,0.43 0.54,0.71 0.51,0.06 0.37,-0.54 1,-0.43 -0.34,1 0.73,0.69 0.52,1.62 0.77,0.07 0.91,-0.47 1.38,-0.72 a 13.35,13.35 0 0 1 2.74,0.62 c -0.08,0.31 -0.4,0.55 -0.14,0.72 0.71,-0.77 1.16,-0.06 2.07,-0.39 -0.53,1.09 -0.35,2.67 -1.69,3.17 -0.14,1.75 -2.51,2.57 -2.28,4.15 -0.13,0.36 -0.57,0.47 -0.43,1.05 -0.12,0.49 0.56,0.06 0.41,0.61 l -0.42,0.08 c -1.47,-1 -0.21,-3.83 -0.18,-6 -0.88,-0.59 -1.94,-1.85 -0.78,-2.91 -0.49,-0.19 -1.35,0 -1.22,-0.86 -1.92,0 -2.6,-1.4 -3.53,-2.63 0,0.44 0.37,0.62 0.53,0.94 -0.85,-0.35 -1.79,-2.62 -1.41,-3.94 -0.77,-1.36 -1.17,-2.91 -2.78,-4.12 -0.44,-0.19 -0.8,-0.27 -0.71,0.42 -0.8,-0.86 -0.87,0.07 -1.79,-0.76 0,-0.63 0.88,0.27 1,-0.21 A 4.08,4.08 0 0 1 9.22,25.74 c 0,-0.35 0.51,0.1 0.7,0 C 9.84,25.35 9.08,25.07 8.98,24.68 Z"
         id="path45"
         inkscape:connector-curvature="0"
         style="fill:#ffffff;fill-rule:evenodd" />
      <path
         class="cls-6"
         d="m 17.63,25.12 h 0.4 c -0.05,0.46 0.16,1.22 -0.43,1.09 -0.26,-0.27 -0.06,-0.78 0.03,-1.09 z"
         id="path47"
         inkscape:connector-curvature="0"
         style="fill:#ffffff;fill-rule:evenodd" />
      <path
         class="cls-6"
         d="m 20.44,26.55 c -0.23,0.26 -0.8,0.19 -1.22,0.24 -0.26,-0.38 -0.51,-1.48 0.3,-1.53 -0.08,0.65 0.18,0.26 0.27,0 0.27,0.07 0.54,0.36 0.25,0.66 0.22,0 0.52,0 0.55,-0.2 0.34,0.2 0.23,0.92 0.93,0.68 0,0.82 0.65,0.94 1.2,1.12 0,0.29 -0.37,0.36 -0.42,0.65 -0.63,-0.51 -1.43,-0.84 -1.86,-1.62 z"
         id="path49"
         inkscape:connector-curvature="0"
         style="fill:#ffffff;fill-rule:evenodd" />
      <path
         class="cls-6"
         d="m 22.16,28.73 c -0.48,0.05 -0.72,0 -0.28,0.2 -0.5,0.38 -0.87,-0.7 -1.48,-0.31 0.12,-0.4 0.8,-0.32 0.82,-0.81 a 0.91,0.91 0 0 1 0.94,0.92 z"
         id="path51"
         inkscape:connector-curvature="0"
         style="fill:#ffffff;fill-rule:evenodd" />
      <path
         class="cls-6"
         d="m 27.19,26 c 0.12,-0.07 0.13,0 0.14,0.08 0,0.24 1,-0.68 0.94,-0.11 a 1.31,1.31 0 0 1 -0.95,0.94 C 27.34,26.52 26.85,26.52 27.19,26 Z"
         id="path53"
         inkscape:connector-curvature="0"
         style="fill:#ffffff;fill-rule:evenodd" />
      <path
         class="cls-6"
         d="m 19.32,28.58 c 0.41,0 0.89,-0.16 0.8,0.35 -0.34,0 -0.42,-0.23 -0.54,0.18 -0.24,-0.01 -0.31,-0.21 -0.26,-0.53 z"
         id="path55"
         inkscape:connector-curvature="0"
         style="fill:#ffffff;fill-rule:evenodd" />
      <path
         class="cls-6"
         d="m 48.05,25 c 0.17,-0.3 0.16,1.42 0.7,0.89 0.36,0.32 -0.28,0.42 -0.53,0.38 0.37,1.61 -1.16,0.88 -1.46,1.69 -0.5,-1.05 1.93,-0.75 1.29,-2.96 z"
         id="path57"
         inkscape:connector-curvature="0"
         style="fill:#ffffff;fill-rule:evenodd" />
      <path
         class="cls-6"
         d="m 45.43,29.47 c 0.15,0.48 1.32,1.14 0.58,1.55 a 1.32,1.32 0 0 1 -0.58,-1.55 z"
         id="path59"
         inkscape:connector-curvature="0"
         style="fill:#ffffff;fill-rule:evenodd" />
      <path
         class="cls-6"
         d="m 45.19,31.09 c 0.09,0.76 -0.36,1.53 -1.08,1.09 C 44,31.46 44.87,31 45.19,31.09 Z"
         id="path61"
         inkscape:connector-curvature="0"
         style="fill:#ffffff;fill-rule:evenodd" />
      <path
         class="cls-6"
         d="m 49.64,33.15 c 0,0.37 -0.18,0.36 -0.54,0.2 0,0.34 0.29,0.45 0.56,0.62 -1.33,-0.07 -2,-1.74 -3.34,-1.69 0.87,-0.66 2.23,0.91 3.32,0.87 z"
         id="path63"
         inkscape:connector-curvature="0"
         style="fill:#ffffff;fill-rule:evenodd" />
      <path
         class="cls-6"
         d="m 36.24,35.1 c 0.49,0.11 0.22,1.76 -0.54,2 -0.24,-0.7 0.18,-1.22 0.54,-2 z"
         id="path65"
         inkscape:connector-curvature="0"
         style="fill:#ffffff;fill-rule:evenodd" />
      <path
         class="cls-6"
         d="m 47.59,33.59 c -0.09,0.44 0.15,0.62 0.44,0.78 0.29,0.16 0,-0.47 0.12,-0.65 a 27.14,27.14 0 0 1 1.72,2.63 C 49.8,37 49.39,37.18 49.22,37.71 a 2.78,2.78 0 0 1 -2,-1.48 c -1.09,-0.36 -1.29,0.32 -2.36,0.17 0.25,-0.68 -0.3,-0.87 -0.31,-1.64 1.27,-0.51 1.51,-1.55 3.04,-1.17 z"
         id="path67"
         inkscape:connector-curvature="0"
         style="fill:#ffffff;fill-rule:evenodd" />
      <path
         class="cls-6"
         d="m 52.27,38.7 a 8.65,8.65 0 0 1 0.71,0.89 c -0.51,0.12 -0.49,1.06 -1.49,0.52 0.15,-0.7 1.32,-0.02 0.78,-1.41 z"
         id="path69"
         inkscape:connector-curvature="0"
         style="fill:#ffffff;fill-rule:evenodd" />
      <path
         class="cls-6"
         d="m 48.67,37.94 c 0.29,0 0.38,0.21 0.57,0.32 0,0.23 -0.24,0.23 -0.55,0.09 z"
         id="path71"
         inkscape:connector-curvature="0"
         style="fill:#ffffff;fill-rule:evenodd" />
      <path
         class="cls-6"
         d="m 29.62,26.94 c -0.07,0.62 0.42,1 0.55,1.69 -0.55,0.59 -1,0.2 -1.37,0.45 -0.1,-0.79 0.61,-0.89 0.28,-1.49 0.34,-0.12 0.43,-0.39 0.54,-0.65 z"
         id="path73"
         inkscape:connector-curvature="0"
         style="fill:#ffffff;fill-rule:evenodd" />
    </g>
  </g>
</svg>
