<svg id="Layer_1" data-name="Layer 1" xmlns="http://www.w3.org/2000/svg" viewBox="0 0 64 64"><defs><style>.cls-1{fill:#27607e;}</style></defs><title>Icon</title><path class="cls-1" d="M12,45.83A2.85,2.85,0,0,1,15,43.26h28.3a2.86,2.86,0,0,1,3.07,2.57,2.86,2.86,0,0,1-3.07,2.57H15A2.85,2.85,0,0,1,12,45.83ZM30,33.28c0-1.42.66-2.57,1.46-2.57h13.5c.8,0,1.45,1.15,1.45,2.57s-.65,2.57-1.45,2.57H31.42C30.62,35.85,30,34.7,30,33.28Zm0-9.65c0-1.42.66-2.58,1.46-2.58h13.5c.8,0,1.45,1.16,1.45,2.58s-.65,2.57-1.45,2.57H31.42C30.62,26.2,30,25.05,30,23.63ZM23.58,21H14.14a3,3,0,0,0-3,3v9.44a3,3,0,0,0,3,3h9.44a3,3,0,0,0,3-3V24A3,3,0,0,0,23.58,21Z"/><path class="cls-1" d="M43.31,48.65H15a3.1,3.1,0,0,1-3.31-2.82A3.1,3.1,0,0,1,15,43h28.3a3.09,3.09,0,0,1,3.31,2.81A3.1,3.1,0,0,1,43.31,48.65ZM15,43.5a2.61,2.61,0,0,0-2.82,2.33A2.61,2.61,0,0,0,15,48.16h28.3a2.61,2.61,0,0,0,2.82-2.33,2.61,2.61,0,0,0-2.82-2.33Zm8.68-6.81H14a3.14,3.14,0,0,1-3.13-3.14V23.89A3.13,3.13,0,0,1,14,20.76h9.66a3.14,3.14,0,0,1,3.14,3.13v9.66A3.15,3.15,0,0,1,23.69,36.69ZM14,21.24a2.65,2.65,0,0,0-2.65,2.65v9.66A2.65,2.65,0,0,0,14,36.2h9.66a2.65,2.65,0,0,0,2.65-2.65V23.89a2.65,2.65,0,0,0-2.65-2.65ZM44.92,36.09H31.42c-1,0-1.7-1.23-1.7-2.81s.75-2.81,1.7-2.81h13.5c.95,0,1.7,1.23,1.7,2.81S45.87,36.09,44.92,36.09ZM31.42,31c-.66,0-1.22,1.07-1.22,2.33s.56,2.33,1.22,2.33h13.5c.66,0,1.21-1.07,1.21-2.33S45.58,31,44.92,31Zm13.5-4.51H31.42c-1,0-1.7-1.24-1.7-2.81s.75-2.82,1.7-2.82h13.5c.95,0,1.7,1.24,1.7,2.82S45.87,26.44,44.92,26.44ZM31.42,21.3c-.66,0-1.22,1.06-1.22,2.33S30.76,26,31.42,26h13.5c.66,0,1.21-1.07,1.21-2.33s-.55-2.33-1.21-2.33Z"/><path class="cls-1" d="M62.79,22.45c-1-5.8-7.24-5.31-7.24-5.31l0,.12a11.09,11.09,0,0,0-9.64-5.62H12.1A11.12,11.12,0,0,0,1,22.75V47.06A11.12,11.12,0,0,0,12.1,58.17H45.89a13.81,13.81,0,0,0,13-9.66C62.79,33.07,63.42,26.25,62.79,22.45ZM45.89,53.34H12.1a6.28,6.28,0,0,1-6.27-6.28V22.75a6.28,6.28,0,0,1,6.27-6.28H45.89a6.29,6.29,0,0,1,6.28,6.28V47.06A6.29,6.29,0,0,1,45.89,53.34Z"/></svg>