<svg id="Layer_1" data-name="Layer 1" xmlns="http://www.w3.org/2000/svg" viewBox="0 0 64 64"><defs><style>.cls-1,.cls-2,.cls-3,.cls-4,.cls-5,.cls-6{fill:#2a617e;stroke:#fff;stroke-miterlimit:10;}.cls-2{opacity:0.85;}.cls-3{opacity:0.3;}.cls-4{opacity:0.2;}.cls-5{opacity:0.7;}.cls-6{opacity:0.5;}</style></defs><title>Icon</title><path class="cls-1" d="M30.07,17.35v4.48h.05A10,10,0,0,1,34.89,23l2.21-3.8a13.82,13.82,0,0,0-7-1.89Z"/><path class="cls-2" d="M30.07,13.38v4.07h.05a13.82,13.82,0,0,1,7,1.89l2.08-3.6a18.5,18.5,0,0,0-9.06-2.36Z"/><path class="cls-1" d="M30.07,9V13.3h.05a18.5,18.5,0,0,1,9.06,2.36L41.33,12A22.74,22.74,0,0,0,30.12,9Z"/><path class="cls-3" d="M30.07,5V9.09h.05A22.74,22.74,0,0,1,41.33,12L43.38,8.5A26.72,26.72,0,0,0,30.12,5Z"/><path class="cls-2" d="M37.49,19.36l-2.26,3.87.05,0a10,10,0,0,1,3.51,3.45l3.82-2.17a13.71,13.71,0,0,0-5.08-5.15Z"/><path class="cls-3" d="M39.49,15.93l-2.05,3.51,0,0a13.75,13.75,0,0,1,5.08,5.14l3.61-2.05A18.45,18.45,0,0,0,39.53,16Z"/><path class="cls-4" d="M41.69,12.15l-2.16,3.7,0,0a18.5,18.5,0,0,1,6.64,6.6l3.73-2.12a22.77,22.77,0,0,0-8.21-8.19Z"/><path class="cls-3" d="M43.71,8.69l-2.06,3.53,0,0a22.7,22.7,0,0,1,8.21,8.19l3.55-2a26.76,26.76,0,0,0-9.7-9.7Z"/><path class="cls-1" d="M29.75,17.35v4.48H29.7A9.94,9.94,0,0,0,24.93,23l-2.21-3.8a13.82,13.82,0,0,1,7-1.89Z"/><path class="cls-4" d="M29.75,13.38v4.07H29.7a13.82,13.82,0,0,0-7,1.89l-2.09-3.6a18.56,18.56,0,0,1,9.07-2.36Z"/><path class="cls-5" d="M29.75,9V13.3H29.7a18.5,18.5,0,0,0-9.06,2.36L18.48,12A22.77,22.77,0,0,1,29.7,9Z"/><path class="cls-4" d="M29.75,5V9.09H29.7A22.77,22.77,0,0,0,18.48,12L16.43,8.5A26.73,26.73,0,0,1,29.7,5Z"/><path class="cls-5" d="M22.33,19.2l2.25,3.88,0,0A10,10,0,0,0,21,26.55L17.2,24.37a13.9,13.9,0,0,1,5.08-5.14Z"/><path class="cls-6" d="M20.33,15.77l2.05,3.52-.05,0a13.83,13.83,0,0,0-5.08,5.14l-3.61-2.05a18.53,18.53,0,0,1,6.64-6.61Z"/><path class="cls-4" d="M18.13,12l2.15,3.7,0,0a18.43,18.43,0,0,0-6.64,6.6L9.87,20.21A22.85,22.85,0,0,1,18.08,12Z"/><path class="cls-5" d="M16.11,8.53l2.06,3.54-.05,0a22.67,22.67,0,0,0-8.2,8.19l-3.56-2a26.87,26.87,0,0,1,9.71-9.7Z"/><path class="cls-3" d="M42.77,24.82,38.86,27l0,0a10,10,0,0,1,1.28,4.76l4.4.05a13.76,13.76,0,0,0-1.78-7Z"/><path class="cls-2" d="M46.23,22.87l-3.55,2a.08.08,0,0,1,0,0,13.76,13.76,0,0,1,1.78,7l4.16,0a18.5,18.5,0,0,0-2.39-9.06Z"/><path class="cls-6" d="M50,20.73l-3.74,2.1s0,0,0,0a18.5,18.5,0,0,1,2.39,9.06L53,32a22.78,22.78,0,0,0-2.94-11.22Z"/><path class="cls-1" d="M53.53,18.76l-3.56,2s0,0,0,0A22.78,22.78,0,0,1,52.93,32l4.08,0A26.75,26.75,0,0,0,53.55,18.8Z"/><path class="cls-6" d="M44.73,32.24l-4.49-.07v0A9.77,9.77,0,0,1,39,37l3.78,2.27a13.9,13.9,0,0,0,2-7Z"/><path class="cls-1" d="M48.7,32.29l-4.07-.06s0,0,0,.05a13.84,13.84,0,0,1-2,6.95l3.57,2.14a18.54,18.54,0,0,0,2.5-9Z"/><path class="cls-5" d="M53.07,32.36l-4.29-.06v0a18.51,18.51,0,0,1-2.5,9L50,43.58a22.76,22.76,0,0,0,3.11-11.17Z"/><path class="cls-6" d="M57.07,32.42,53,32.36v0a22.76,22.76,0,0,1-3.11,11.17l3.5,2.1a26.77,26.77,0,0,0,3.69-13.21Z"/><path class="cls-2" d="M29.79,46.65V42.17h-.05A10,10,0,0,1,25,41l-2.2,3.8a13.82,13.82,0,0,0,7,1.89Z"/><path class="cls-5" d="M29.79,50.62V46.55h-.05a13.82,13.82,0,0,1-7-1.89l-2.09,3.6a18.53,18.53,0,0,0,9.07,2.36Z"/><path class="cls-4" d="M29.79,55V50.7h-.05a18.56,18.56,0,0,1-9.07-2.36l-2.15,3.71A22.77,22.77,0,0,0,29.74,55Z"/><path class="cls-2" d="M29.79,59V54.91h-.05A22.77,22.77,0,0,1,18.52,52L16.47,55.5A26.73,26.73,0,0,0,29.74,59Z"/><path class="cls-3" d="M22.36,44.64l2.26-3.87,0,0a10,10,0,0,1-3.52-3.45l-3.82,2.18a13.9,13.9,0,0,0,5.08,5.14Z"/><path class="cls-6" d="M20.37,48.07l2.05-3.51-.05,0a13.9,13.9,0,0,1-5.08-5.14l-3.61,2a18.53,18.53,0,0,0,6.64,6.61Z"/><path class="cls-3" d="M18.17,51.85l2.15-3.7,0,0a18.58,18.58,0,0,1-6.64-6.6L9.91,43.64a22.85,22.85,0,0,0,8.21,8.19Z"/><path class="cls-1" d="M16.15,55.31l2.06-3.53-.05,0A22.85,22.85,0,0,1,10,43.57l-3.55,2a26.87,26.87,0,0,0,9.71,9.7A.05.05,0,0,0,16.15,55.31Z"/><path class="cls-1" d="M30.11,46.65V42.17h.05A10,10,0,0,0,34.93,41l2.21,3.8a13.84,13.84,0,0,1-7,1.89Z"/><path class="cls-3" d="M30.11,50.62V46.55h.05a13.84,13.84,0,0,0,7-1.89l2.08,3.6a18.5,18.5,0,0,1-9.06,2.36Z"/><path class="cls-6" d="M30.11,55V50.7h.05a18.5,18.5,0,0,0,9.06-2.36l2.15,3.71A22.74,22.74,0,0,1,30.16,55Z"/><path class="cls-1" d="M30.11,59V54.91h.05A22.74,22.74,0,0,0,41.37,52l2.05,3.53A26.72,26.72,0,0,1,30.16,59Z"/><path class="cls-3" d="M37.6,44.65l-2.14-3.94,0,0a10.06,10.06,0,0,0,3.62-3.34l3.76,2.29a13.83,13.83,0,0,1-5.24,5Z"/><path class="cls-2" d="M39.49,48.14l-1.94-3.58,0,0a13.83,13.83,0,0,0,5.24-5l3.54,2.17a18.43,18.43,0,0,1-6.84,6.4Z"/><path class="cls-4" d="M41.57,52l-2-3.77,0,0a18.43,18.43,0,0,0,6.84-6.4L50.07,44A22.74,22.74,0,0,1,41.62,52Z"/><path class="cls-4" d="M43.48,55.51l-1.95-3.6,0,0A22.74,22.74,0,0,0,50,44l3.49,2.13a26.75,26.75,0,0,1-10,9.39Z"/><path class="cls-4" d="M17.09,39.18,21,37l0,0a10,10,0,0,1-1.29-4.76l-4.4,0a13.93,13.93,0,0,0,1.78,7Z"/><path class="cls-1" d="M13.63,41.13l3.55-2,0,0a13.83,13.83,0,0,1-1.78-7l-4.15,0a18.49,18.49,0,0,0,2.38,9.06Z"/><path class="cls-6" d="M9.82,43.27l3.74-2.1,0,0a18.49,18.49,0,0,1-2.38-9.06L6.86,32A22.67,22.67,0,0,0,9.79,43.23Z"/><path class="cls-5" d="M6.33,45.24l3.56-2,0,0A22.67,22.67,0,0,1,6.93,32l-4.09,0A27,27,0,0,0,6.3,45.2Z"/><path class="cls-2" d="M15.27,31.69l4.49,0a.07.07,0,0,1,0-.05,10,10,0,0,1,1.18-4.78l-3.82-2.18a13.87,13.87,0,0,0-1.84,7Z"/><path class="cls-4" d="M11.3,31.72l4.07,0v-.05a14,14,0,0,1,1.84-7L13.6,22.59a18.56,18.56,0,0,0-2.3,9.08Z"/><path class="cls-1" d="M6.93,31.75l4.29,0v0a18.56,18.56,0,0,1,2.3-9.08L9.8,20.47A22.65,22.65,0,0,0,6.93,31.7Z"/><path class="cls-3" d="M2.92,31.78l4.09,0V31.7A22.65,22.65,0,0,1,9.88,20.47l-3.55-2A26.76,26.76,0,0,0,2.92,31.73Z"/></svg>