<svg id="Layer_1" data-name="Layer 1" xmlns="http://www.w3.org/2000/svg" viewBox="0 0 64 64"><defs><style>.cls-1,.cls-2,.cls-3,.cls-4,.cls-5,.cls-6{fill:#2a617e;stroke:#fff;}.cls-1,.cls-2,.cls-3,.cls-4,.cls-5,.cls-6,.cls-7{stroke-miterlimit:10;}.cls-2{opacity:0.85;}.cls-3{opacity:0.3;}.cls-4{opacity:0.2;}.cls-5{opacity:0.7;}.cls-6{opacity:0.5;}.cls-7{fill:#fff;stroke:#000;stroke-width:0.5px;}</style></defs><title>Icon</title><path class="cls-1" d="M32.11,17.35v4.48h0A10,10,0,0,1,36.93,23l2.21-3.8a13.82,13.82,0,0,0-7-1.89Z"/><path class="cls-2" d="M32.11,13.38v4.07h0a13.82,13.82,0,0,1,7,1.89l2.08-3.6a18.5,18.5,0,0,0-9.06-2.36Z"/><path class="cls-1" d="M32.11,9V13.3h0a18.5,18.5,0,0,1,9.06,2.36L43.37,12A22.71,22.71,0,0,0,32.16,9Z"/><path class="cls-3" d="M32.11,5V9.09h0A22.71,22.71,0,0,1,43.37,12L45.42,8.5A26.69,26.69,0,0,0,32.16,5Z"/><path class="cls-2" d="M39.53,19.36l-2.25,3.87,0,0a9.92,9.92,0,0,1,3.51,3.45l3.83-2.17a13.81,13.81,0,0,0-5.09-5.15Z"/><path class="cls-3" d="M41.53,15.93l-2.05,3.51,0,0a13.75,13.75,0,0,1,5.08,5.14l3.61-2.05A18.37,18.37,0,0,0,41.57,16Z"/><path class="cls-4" d="M43.73,12.15l-2.16,3.7,0,0a18.58,18.58,0,0,1,6.64,6.6L52,20.36a22.7,22.7,0,0,0-8.21-8.19Z"/><path class="cls-3" d="M45.75,8.69l-2.06,3.53,0,0a22.7,22.7,0,0,1,8.21,8.19l3.55-2a26.76,26.76,0,0,0-9.7-9.7Z"/><path class="cls-1" d="M31.79,17.35v4.48h-.05A10,10,0,0,0,27,23l-2.21-3.8a13.82,13.82,0,0,1,7-1.89Z"/><path class="cls-4" d="M31.79,13.38v4.07h-.05a13.82,13.82,0,0,0-7,1.89l-2.08-3.6a18.5,18.5,0,0,1,9.06-2.36Z"/><path class="cls-5" d="M31.79,9V13.3h-.05a18.5,18.5,0,0,0-9.06,2.36L20.53,12A22.71,22.71,0,0,1,31.74,9Z"/><path class="cls-4" d="M31.79,5V9.09h-.05A22.71,22.71,0,0,0,20.53,12L18.48,8.5A26.69,26.69,0,0,1,31.74,5Z"/><path class="cls-5" d="M24.37,19.2l2.25,3.88,0,0a9.92,9.92,0,0,0-3.51,3.45l-3.83-2.18a13.86,13.86,0,0,1,5.09-5.14Z"/><path class="cls-6" d="M22.37,15.77l2.05,3.52,0,0a13.68,13.68,0,0,0-5.08,5.14l-3.61-2.05a18.37,18.37,0,0,1,6.64-6.61Z"/><path class="cls-4" d="M20.17,12l2.16,3.7,0,0a18.43,18.43,0,0,0-6.64,6.6l-3.72-2.12A22.7,22.7,0,0,1,20.13,12Z"/><path class="cls-5" d="M18.15,8.53l2.06,3.54,0,0A22.62,22.62,0,0,0,12,20.28l-3.55-2a26.76,26.76,0,0,1,9.7-9.7Z"/><path class="cls-3" d="M44.81,24.82,40.9,27l0,0a10,10,0,0,1,1.29,4.76l4.39.05a13.76,13.76,0,0,0-1.78-7Z"/><path class="cls-2" d="M48.27,22.87l-3.55,2,0,0a14,14,0,0,1,1.78,7l4.15,0a18.39,18.39,0,0,0-2.39-9.06Z"/><path class="cls-6" d="M52.08,20.73l-3.74,2.1,0,0a18.49,18.49,0,0,1,2.38,9.06L55,32A22.78,22.78,0,0,0,52.1,20.77Z"/><path class="cls-1" d="M55.57,18.76l-3.56,2a.05.05,0,0,1,0,0A22.68,22.68,0,0,1,55,32l4.09,0A27,27,0,0,0,55.6,18.8Z"/><path class="cls-6" d="M46.77,32.24l-4.48-.07v0A10,10,0,0,1,41,37l3.77,2.27a13.9,13.9,0,0,0,2-7Z"/><path class="cls-1" d="M50.74,32.29l-4.07-.06v.05a13.83,13.83,0,0,1-2,6.95l3.56,2.14a18.54,18.54,0,0,0,2.5-9Z"/><path class="cls-5" d="M55.11,32.36l-4.29-.06v0a18.4,18.4,0,0,1-2.5,9L52,43.58a22.76,22.76,0,0,0,3.11-11.17Z"/><path class="cls-6" d="M59.12,32.42,55,32.36v0a22.76,22.76,0,0,1-3.11,11.17l3.5,2.1a26.78,26.78,0,0,0,3.7-13.21Z"/><path class="cls-2" d="M31.83,46.65V42.17h0A10,10,0,0,1,27,41l-2.21,3.8a13.82,13.82,0,0,0,7,1.89Z"/><path class="cls-5" d="M31.83,50.62V46.55h0a13.82,13.82,0,0,1-7-1.89l-2.08,3.6a18.5,18.5,0,0,0,9.06,2.36Z"/><path class="cls-4" d="M31.83,55V50.7h0a18.5,18.5,0,0,1-9.06-2.36l-2.15,3.71A22.71,22.71,0,0,0,31.78,55Z"/><path class="cls-2" d="M31.83,59V54.91h0A22.71,22.71,0,0,1,20.57,52L18.52,55.5A26.69,26.69,0,0,0,31.78,59Z"/><path class="cls-3" d="M24.41,44.64l2.25-3.87,0,0a9.92,9.92,0,0,1-3.51-3.45l-3.83,2.18a13.9,13.9,0,0,0,5.08,5.14Z"/><path class="cls-6" d="M22.41,48.07l2.05-3.51,0,0a13.75,13.75,0,0,1-5.08-5.14l-3.61,2a18.37,18.37,0,0,0,6.64,6.61Z"/><path class="cls-3" d="M20.21,51.85l2.16-3.7-.05,0a18.58,18.58,0,0,1-6.64-6.6L12,43.64a22.74,22.74,0,0,0,8.2,8.19Z"/><path class="cls-1" d="M18.19,55.31l2.06-3.53-.05,0A22.74,22.74,0,0,1,12,43.57l-3.55,2a26.76,26.76,0,0,0,9.7,9.7Z"/><path class="cls-1" d="M32.15,46.65V42.17h.05A10,10,0,0,0,37,41l2.21,3.8a13.82,13.82,0,0,1-7,1.89Z"/><path class="cls-3" d="M32.15,50.62V46.55h.05a13.82,13.82,0,0,0,7-1.89l2.08,3.6a18.5,18.5,0,0,1-9.06,2.36Z"/><path class="cls-6" d="M32.15,55V50.7h.05a18.5,18.5,0,0,0,9.06-2.36l2.15,3.71A22.71,22.71,0,0,1,32.2,55Z"/><path class="cls-1" d="M32.15,59V54.91h.05A22.71,22.71,0,0,0,43.41,52l2.05,3.53A26.69,26.69,0,0,1,32.2,59Z"/><path class="cls-3" d="M39.64,44.65,37.5,40.71l0,0a10.06,10.06,0,0,0,3.62-3.34l3.75,2.29a13.76,13.76,0,0,1-5.24,5Z"/><path class="cls-2" d="M41.53,48.14l-1.94-3.58,0,0a13.76,13.76,0,0,0,5.24-5l3.55,2.17a18.46,18.46,0,0,1-6.85,6.4Z"/><path class="cls-4" d="M43.61,52l-2-3.77,0,0a18.35,18.35,0,0,0,6.84-6.4L52.12,44A22.85,22.85,0,0,1,43.66,52Z"/><path class="cls-4" d="M45.53,55.51l-2-3.6,0,0A22.69,22.69,0,0,0,52.08,44l3.48,2.13a26.75,26.75,0,0,1-10,9.39Z"/><path class="cls-4" d="M19.13,39.18,23,37l0,0a10,10,0,0,1-1.29-4.76l-4.39,0a13.73,13.73,0,0,0,1.78,7Z"/><path class="cls-1" d="M15.67,41.13l3.55-2,0,0a13.93,13.93,0,0,1-1.78-7l-4.15,0a18.39,18.39,0,0,0,2.39,9.06Z"/><path class="cls-6" d="M11.86,43.27l3.74-2.1,0,0a18.49,18.49,0,0,1-2.38-9.06L8.9,32a22.68,22.68,0,0,0,2.94,11.22A.08.08,0,0,0,11.86,43.27Z"/><path class="cls-5" d="M8.37,45.24l3.56-2a.05.05,0,0,1,0,0A22.68,22.68,0,0,1,9,32l-4.09,0A27,27,0,0,0,8.34,45.2Z"/><path class="cls-2" d="M17.32,31.69l4.48,0v-.05A9.92,9.92,0,0,1,23,26.83l-3.82-2.18a14,14,0,0,0-1.84,7A.43.43,0,0,0,17.32,31.69Z"/><path class="cls-4" d="M13.35,31.72l4.07,0a.11.11,0,0,0,0-.05,13.88,13.88,0,0,1,1.85-7l-3.61-2.06a18.46,18.46,0,0,0-2.31,9.08S13.35,31.7,13.35,31.72Z"/><path class="cls-1" d="M9,31.75l4.29,0v0a18.56,18.56,0,0,1,2.3-9.08l-3.72-2.12A22.65,22.65,0,0,0,9,31.7Z"/><path class="cls-3" d="M5,31.78l4.08,0V31.7a22.65,22.65,0,0,1,2.87-11.23l-3.55-2A26.76,26.76,0,0,0,5,31.73Z"/><path class="cls-7" d="M16.08,35.8H14.72V30.68a4.84,4.84,0,0,1-1.76,1V30.47a3.68,3.68,0,0,0,1.16-.66A2.48,2.48,0,0,0,15,28.68h1.11Z"/><path class="cls-7" d="M22.7,34.54V35.8H17.93a3.4,3.4,0,0,1,.47-1.36,9.2,9.2,0,0,1,1.53-1.7,9.89,9.89,0,0,0,1.12-1.16,1.47,1.47,0,0,0,.28-.83,1,1,0,0,0-.24-.7.92.92,0,0,0-.68-.24.9.9,0,0,0-.67.25,1.28,1.28,0,0,0-.29.85l-1.36-.13a2.22,2.22,0,0,1,.76-1.61,2.54,2.54,0,0,1,1.6-.49,2.3,2.3,0,0,1,1.65.57,1.83,1.83,0,0,1,.6,1.4,2.49,2.49,0,0,1-.17.91,3.74,3.74,0,0,1-.55.91,7.89,7.89,0,0,1-.89.9c-.43.4-.7.66-.81.79a1.85,1.85,0,0,0-.28.38Z"/><path class="cls-7" d="M24.17,32V30.66h1.36V32Zm0,3.78V34.44h1.36V35.8Z"/><path class="cls-7" d="M30.39,35.8H29V30.68a4.8,4.8,0,0,1-1.75,1V30.47a3.64,3.64,0,0,0,1.15-.66,2.51,2.51,0,0,0,.86-1.13h1.1Z"/><path class="cls-7" d="M37,34.54V35.8H32.25a3.24,3.24,0,0,1,.46-1.36,9.2,9.2,0,0,1,1.53-1.7,10.32,10.32,0,0,0,1.13-1.16,1.55,1.55,0,0,0,.28-.83.85.85,0,0,0-.92-.94.91.91,0,0,0-.68.25,1.34,1.34,0,0,0-.29.85l-1.35-.13a2.19,2.19,0,0,1,.76-1.61,2.49,2.49,0,0,1,1.59-.49,2.3,2.3,0,0,1,1.65.57,1.83,1.83,0,0,1,.6,1.4,2.49,2.49,0,0,1-.17.91,3.74,3.74,0,0,1-.55.91,8.5,8.5,0,0,1-.88.9c-.43.4-.71.66-.82.79a2.31,2.31,0,0,0-.28.38Z"/><path class="cls-7" d="M38.48,32V30.66h1.36V32Zm0,3.78V34.44h1.36V35.8Z"/><path class="cls-7" d="M41.25,34l1.35-.14a1.17,1.17,0,0,0,.34.73.93.93,0,0,0,.66.27.92.92,0,0,0,.72-.34,1.58,1.58,0,0,0,.3-1.05,1.42,1.42,0,0,0-.3-1,1,1,0,0,0-.76-.32,1.39,1.39,0,0,0-1.05.51l-1.1-.15.7-3.69H45.7v1.27H43.14l-.22,1.2a2.13,2.13,0,0,1,.93-.23,2,2,0,0,1,1.53.66A2.37,2.37,0,0,1,46,33.42a2.62,2.62,0,0,1-.5,1.56,2.24,2.24,0,0,1-1.92.94,2.37,2.37,0,0,1-1.6-.53A2.13,2.13,0,0,1,41.25,34Z"/><path class="cls-7" d="M46.76,34.16,48.08,34a1,1,0,0,0,.25.6.74.74,0,0,0,.54.19.86.86,0,0,0,.71-.39,3.15,3.15,0,0,0,.38-1.6,1.61,1.61,0,0,1-1.28.59,1.89,1.89,0,0,1-1.44-.64,2.33,2.33,0,0,1-.61-1.68,2.38,2.38,0,0,1,.64-1.74,2.18,2.18,0,0,1,1.63-.66,2.21,2.21,0,0,1,1.77.83,4.35,4.35,0,0,1,.69,2.75,4.35,4.35,0,0,1-.72,2.8,2.3,2.3,0,0,1-1.87.86,2,2,0,0,1-1.35-.44A2.13,2.13,0,0,1,46.76,34.16Zm3.08-3a1.55,1.55,0,0,0-.3-1,.9.9,0,0,0-.7-.36.82.82,0,0,0-.63.29,1.58,1.58,0,0,0-.25,1,1.56,1.56,0,0,0,.27,1,.87.87,0,0,0,1.34,0A1.35,1.35,0,0,0,49.84,31.19Z"/></svg>