<svg id="Layer_1" data-name="Layer 1" xmlns="http://www.w3.org/2000/svg" xmlns:xlink="http://www.w3.org/1999/xlink" viewBox="0 0 64 64"><defs><style>.cls-1{fill:#27607e;}.cls-2{fill:#4dbec2;}.cls-3{fill:#fff;opacity:0.8;}.cls-4{fill:#9a9a9a;}.cls-5{fill:url(#linear-gradient);}.cls-6{fill:url(#linear-gradient-2);}.cls-7{fill:#666768;}.cls-8{fill:#929497;}</style><linearGradient id="linear-gradient" x1="48.32" y1="38.13" x2="42.99" y2="38.13" gradientUnits="userSpaceOnUse"><stop offset="0.34" stop-color="#787878"/><stop offset="0.68" stop-color="#787878"/><stop offset="1" stop-color="#1c1c1c"/></linearGradient><linearGradient id="linear-gradient-2" x1="15.35" y1="38.13" x2="20.21" y2="38.13" xlink:href="#linear-gradient"/></defs><title>Icon</title><rect class="cls-1" x="7.92" y="15.93" width="12.5" height="5.49" transform="translate(28.34 37.35) rotate(180)"/><rect class="cls-2" x="20.42" y="15.93" width="2.54" height="5.49" transform="translate(43.39 37.35) rotate(180)"/><rect class="cls-1" x="22.96" y="15.93" width="10.65" height="5.49" transform="translate(56.58 37.35) rotate(180)"/><rect class="cls-2" x="33.61" y="15.93" width="13.97" height="5.49" transform="translate(81.2 37.35) rotate(180)"/><rect class="cls-1" x="47.59" y="15.93" width="8.42" height="5.49" transform="translate(103.59 37.35) rotate(180)"/><rect class="cls-2" x="7.98" y="31.79" width="3.28" height="5.49" transform="translate(19.25 69.08) rotate(180)"/><rect class="cls-1" x="11.27" y="31.79" width="8.4" height="5.49" transform="translate(30.93 69.08) rotate(180)"/><rect class="cls-2" x="19.67" y="31.79" width="8.41" height="5.49" transform="translate(47.75 69.08) rotate(180)"/><rect class="cls-1" x="28.08" y="31.79" width="6.89" height="5.49" transform="translate(63.05 69.08) rotate(180)"/><rect class="cls-2" x="34.97" y="31.79" width="6.05" height="5.49" transform="translate(76 69.08) rotate(180)"/><rect class="cls-1" x="7.85" y="46.7" width="17.51" height="5.49" transform="translate(33.21 98.89) rotate(180)"/><rect class="cls-2" x="25.36" y="46.7" width="3.38" height="5.49" transform="translate(54.1 98.89) rotate(180)"/><rect class="cls-1" x="28.72" y="46.7" width="8.37" height="5.49" transform="translate(65.82 98.89) rotate(180)"/><rect class="cls-2" x="37.1" y="46.7" width="8.42" height="5.49" transform="translate(82.61 98.89) rotate(180)"/><rect class="cls-1" x="45.54" y="46.7" width="6.82" height="5.49" transform="translate(97.9 98.89) rotate(180)"/><rect class="cls-3" x="5.75" y="11.92" width="15.31" height="44.97"/><rect class="cls-3" x="42.12" y="11.92" width="15.31" height="44.97"/><polygon class="cls-4" points="7.48 57.02 7.48 57.02 5 57.02 5 59 7.48 59 7.48 59 59 59 59 57.02 7.48 57.02"/><path class="cls-5" d="M47.85,40.19a1.92,1.92,0,0,1-1.93,1.92H42.44v-8h3.48a1.92,1.92,0,0,1,1.93,1.92Z"/><path class="cls-6" d="M15.35,36.07a1.92,1.92,0,0,1,1.92-1.92h3.49v8H17.27a1.92,1.92,0,0,1-1.92-1.92Z"/><rect class="cls-7" x="20.66" y="12.26" width="0.98" height="44.57"/><rect class="cls-7" x="41.79" y="12.26" width="0.98" height="44.57"/><path class="cls-8" d="M18.46,40.37a.41.41,0,0,1-.41.41h0a.4.4,0,0,1-.4-.41V35.89a.4.4,0,0,1,.4-.41h0a.41.41,0,0,1,.41.41Z"/><path class="cls-8" d="M46.21,40.37a.41.41,0,0,1-.41.41h0a.41.41,0,0,1-.41-.41V35.89a.41.41,0,0,1,.41-.41h0a.41.41,0,0,1,.41.41Z"/></svg>