<svg id="Layer_1" data-name="Layer 1" xmlns="http://www.w3.org/2000/svg" viewBox="0 0 64 64"><defs><style>.cls-1{fill:#54c8cd;}.cls-2{fill:#317883;}.cls-3{fill:#2a617e;}.cls-4{fill:#4dbec2;}</style></defs><title>Icon</title><path class="cls-1" d="M14.61,46.87l-3.91,3.9A26.1,26.1,0,0,0,29.35,58.5V53A21.41,21.41,0,0,1,14.61,46.87Z"/><path class="cls-2" d="M15.6,15.2,12.06,11c-.52.45-.87.76-1.36,1.25l3.9,3.9C14.93,15.81,15.26,15.5,15.6,15.2Z"/><path class="cls-2" d="M14,16.76h0l.18-.19.08-.08-3.89-3.9c-.53.54-1.06,1.13-1.55,1.72l4.28,3.46C13.35,17.44,13.65,17.1,14,16.76Z"/><path class="cls-2" d="M29.35,16.19V10.53a20.5,20.5,0,0,0-14.64,6.21l4.07,3.94A15.28,15.28,0,0,1,29.35,16.19Z"/><path class="cls-2" d="M16.63,23.38l-4.75-3.09a20.41,20.41,0,0,0-1.62,3.11l5.25,2.12A16.73,16.73,0,0,1,16.63,23.38Z"/><path class="cls-2" d="M15.32,26l-5.25-2.12a19.52,19.52,0,0,0-1.43,7.36H14.3A15.22,15.22,0,0,1,15.32,26Z"/><path class="cls-2" d="M18.42,21.05l-4.07-3.93a18.67,18.67,0,0,0-2.19,2.74l4.75,3.08A16.24,16.24,0,0,1,18.42,21.05Z"/><path class="cls-1" d="M14.3,31.76H8.64A21,21,0,0,0,29.35,52.47V46.81A15.33,15.33,0,0,1,14.3,31.76Z"/><path class="cls-3" d="M50.09,25l5.27-1.61c-.23-.73-.5-1.47-.79-2.17l-5.08,2.15C49.71,23.87,49.91,24.42,50.09,25Z"/><path class="cls-3" d="M48.28,20.86l4.82-2.68a24.13,24.13,0,0,0-4.21-5.59L45,16.5A21.66,21.66,0,0,1,48.28,20.86Z"/><path class="cls-3" d="M48.52,12.23A26.06,26.06,0,0,0,29.87,4.5V10a21.44,21.44,0,0,1,14.75,6.12Z"/><path class="cls-3" d="M49.29,22.87l5.08-2.16c-.31-.69-.65-1.4-1-2.07l-4.82,2.67C48.81,21.82,49.06,22.34,49.29,22.87Z"/><path class="cls-3" d="M29.87,10.53v5.66a15.31,15.31,0,0,1,0,30.62v5.66a21,21,0,0,0,0-41.94Z"/><path class="cls-3" d="M29.87,16.7v7.66a7.23,7.23,0,0,1,0,14.45V46.3a14.8,14.8,0,0,0,0-29.6Z"/><path class="cls-2" d="M29.35,24.35V16.7A14.82,14.82,0,0,0,14.81,31.24h7.53A7.24,7.24,0,0,1,29.35,24.35Z"/><path class="cls-4" d="M22.34,31.76H14.81A14.82,14.82,0,0,0,29.35,46.3V38.82A7.22,7.22,0,0,1,22.34,31.76Z"/></svg>