<?xml version="1.0" encoding="UTF-8" standalone="no"?>
<svg
   xmlns:dc="http://purl.org/dc/elements/1.1/"
   xmlns:cc="http://creativecommons.org/ns#"
   xmlns:rdf="http://www.w3.org/1999/02/22-rdf-syntax-ns#"
   xmlns:svg="http://www.w3.org/2000/svg"
   xmlns="http://www.w3.org/2000/svg"
   xmlns:sodipodi="http://sodipodi.sourceforge.net/DTD/sodipodi-0.dtd"
   xmlns:inkscape="http://www.inkscape.org/namespaces/inkscape"
   id="Layer_1"
   data-name="Layer 1"
   viewBox="0 0 64 64"
   version="1.1"
   sodipodi:docname="thumbnail_grid.svg"
   inkscape:version="0.92.3 (unknown)">
  <metadata
     id="metadata13">
    <rdf:RDF>
      <cc:Work
         rdf:about="">
        <dc:format>image/svg+xml</dc:format>
        <dc:type
           rdf:resource="http://purl.org/dc/dcmitype/StillImage" />
      </cc:Work>
    </rdf:RDF>
  </metadata>
  <sodipodi:namedview
     pagecolor="#ffffff"
     bordercolor="#666666"
     borderopacity="1"
     objecttolerance="10"
     gridtolerance="10"
     guidetolerance="10"
     inkscape:pageopacity="0"
     inkscape:pageshadow="2"
     inkscape:window-width="1557"
     inkscape:window-height="1176"
     id="namedview11"
     showgrid="false"
     inkscape:zoom="3.6875"
     inkscape:cx="32"
     inkscape:cy="34.743659"
     inkscape:window-x="43"
     inkscape:window-y="24"
     inkscape:window-maximized="1"
     inkscape:current-layer="Layer_1" />
  <defs
     id="defs4">
    <style
       id="style2">.cls-1{fill:#27607e;}</style>
  </defs>
  <title
     id="title6">Icon</title>
  <path
     class="cls-1"
     d="M 14.791116,18.0059 H 3.1051843 A 3.1051843,3.0914454 0 0 1 0,14.914454 V 3.0914454 A 3.1051843,3.0914454 0 0 1 3.1051843,0 H 14.791116 a 3.0933335,3.079646 0 0 1 3.093323,3.0914454 V 14.890855 A 3.0933335,3.079646 0 0 1 14.791116,18.0059 Z M 40.936293,14.914454 V 3.0914454 A 3.1051843,3.0914454 0 0 0 37.831116,0 H 26.145182 A 3.1051843,3.0914454 0 0 0 23.04,3.0914454 V 14.890855 a 3.1051843,3.0914454 0 0 0 3.105182,3.091446 h 11.685934 a 3.1051843,3.0914454 0 0 0 3.105177,-3.067847 z m 23.063707,0 V 3.0914454 A 3.1051843,3.0914454 0 0 0 60.894818,0 H 49.208884 A 3.1051843,3.0914454 0 0 0 46.103707,3.0914454 V 14.890855 a 3.1051843,3.0914454 0 0 0 3.105177,3.091446 H 60.894818 A 3.1051843,3.0914454 0 0 0 64,14.914454 Z M 17.884439,37.899705 V 26.100295 A 3.0933335,3.079646 0 0 0 14.791116,23.00885 H 3.1051843 A 3.1051843,3.0914454 0 0 0 0,26.100295 v 11.79941 A 3.1051843,3.0914454 0 0 0 3.1051843,40.99115 H 14.791116 a 3.0933335,3.079646 0 0 0 3.093323,-3.091445 z m 23.051854,0 V 26.100295 A 3.1051843,3.0914454 0 0 0 37.831116,23.00885 H 26.145182 A 3.1051843,3.0914454 0 0 0 23.04,26.100295 v 11.79941 a 3.1051843,3.0914454 0 0 0 3.105182,3.091445 h 11.685934 a 3.1051843,3.0914454 0 0 0 3.105177,-3.091445 z m 23.063707,0 V 26.100295 A 3.1051843,3.0914454 0 0 0 60.894818,23.00885 H 49.208884 a 3.1051843,3.0914454 0 0 0 -3.105177,3.091445 v 11.79941 a 3.1051843,3.0914454 0 0 0 3.105177,3.091445 H 60.894818 A 3.1051843,3.0914454 0 0 0 64,37.899705 Z M 17.884439,60.908555 V 49.109145 A 3.0933335,3.079646 0 0 0 14.791116,46.017699 H 3.1051843 A 3.1051843,3.0914454 0 0 0 0,49.085546 v 11.79941 a 3.1051843,3.0914454 0 0 0 3.1051843,3.091445 H 14.791116 a 3.0933335,3.079646 0 0 0 3.093323,-3.067846 z m 23.051854,0 V 49.109145 A 3.1051843,3.0914454 0 0 0 37.831116,46.017699 H 26.145182 A 3.1051843,3.0914454 0 0 0 23.04,49.109145 v 11.79941 A 3.1051843,3.0914454 0 0 0 26.145182,64 h 11.685934 a 3.1051843,3.0914454 0 0 0 3.105177,-3.091445 z m 23.063707,0 V 49.109145 A 3.1051843,3.0914454 0 0 0 60.894818,46.017699 H 49.208884 a 3.1051843,3.0914454 0 0 0 -3.105177,3.091446 v 11.79941 A 3.1051843,3.0914454 0 0 0 49.208884,64 H 60.894818 A 3.1051843,3.0914454 0 0 0 64,60.908555 Z"
     id="path8"
     inkscape:connector-curvature="0"
     style="fill:#27607e;stroke-width:1.18257082" />
</svg>
