<?xml version="1.0" encoding="UTF-8" standalone="no"?>
<svg
   xmlns:dc="http://purl.org/dc/elements/1.1/"
   xmlns:cc="http://creativecommons.org/ns#"
   xmlns:rdf="http://www.w3.org/1999/02/22-rdf-syntax-ns#"
   xmlns:svg="http://www.w3.org/2000/svg"
   xmlns="http://www.w3.org/2000/svg"
   xmlns:xlink="http://www.w3.org/1999/xlink"
   xmlns:sodipodi="http://sodipodi.sourceforge.net/DTD/sodipodi-0.dtd"
   xmlns:inkscape="http://www.inkscape.org/namespaces/inkscape"
   id="Layer_1"
   data-name="Layer 1"
   viewBox="0 0 64 64"
   version="1.1"
   sodipodi:docname="icon_timeline.svg"
   inkscape:version="0.92.3 (unknown)">
  <metadata
     id="metadata99">
    <rdf:RDF>
      <cc:Work
         rdf:about="">
        <dc:format>image/svg+xml</dc:format>
        <dc:type
           rdf:resource="http://purl.org/dc/dcmitype/StillImage" />
      </cc:Work>
    </rdf:RDF>
  </metadata>
  <sodipodi:namedview
     pagecolor="#ffffff"
     bordercolor="#666666"
     borderopacity="1"
     objecttolerance="10"
     gridtolerance="10"
     guidetolerance="10"
     inkscape:pageopacity="0"
     inkscape:pageshadow="2"
     inkscape:window-width="1557"
     inkscape:window-height="1176"
     id="namedview97"
     showgrid="false"
     inkscape:zoom="3.6875"
     inkscape:cx="32"
     inkscape:cy="32"
     inkscape:window-x="43"
     inkscape:window-y="24"
     inkscape:window-maximized="1"
     inkscape:current-layer="Layer_1" />
  <defs
     id="defs12">
    <style
       id="style2">.cls-1{fill:url(#linear-gradient);}.cls-2{fill:url(#linear-gradient-2);}.cls-3{fill:#4dbec2;}.cls-4{fill:#fff;}.cls-5{fill:#27607e;}.cls-6{fill:#666768;}.cls-7{fill:#9a9a9a;}</style>
    <linearGradient
       id="linear-gradient"
       x1="47.59"
       y1="39.37"
       x2="42.06"
       y2="39.37"
       gradientUnits="userSpaceOnUse">
      <stop
         offset="0.34"
         stop-color="#787878"
         id="stop4" />
      <stop
         offset="0.68"
         stop-color="#787878"
         id="stop6" />
      <stop
         offset="1"
         stop-color="#1c1c1c"
         id="stop8" />
    </linearGradient>
    <linearGradient
       id="linear-gradient-2"
       x1="13.39"
       y1="39.37"
       x2="18.44"
       y2="39.37"
       xlink:href="#linear-gradient" />
    <linearGradient
       inkscape:collect="always"
       xlink:href="#linear-gradient"
       id="linearGradient143"
       gradientUnits="userSpaceOnUse"
       x1="47.59"
       y1="39.37"
       x2="42.06"
       y2="39.37" />
  </defs>
  <title
     id="title14">Icon</title>
  <g
     id="g141"
     transform="matrix(1.0292858,0,0,1.0292858,-0.9371456,-4.7249172)">
    <path
       id="path16"
       d="m 47.11,41.51 a 2,2 0 0 1 -2,2 h -3.62 v -8.27 h 3.62 a 2,2 0 0 1 2,2 z"
       class="cls-1"
       style="fill:url(#linearGradient143)"
       inkscape:connector-curvature="0" />
    <path
       id="path18"
       d="m 13.39,37.24 a 2,2 0 0 1 2,-2 H 19 v 8.26 h -3.61 a 2,2 0 0 1 -2,-2 z"
       class="cls-2"
       style="fill:url(#linear-gradient-2)"
       inkscape:connector-curvature="0" />
    <rect
       id="rect20"
       height="8.6800003"
       width="3.26"
       y="50"
       x="55.939999"
       class="cls-3"
       style="fill:#4dbec2" />
    <path
       id="path22"
       d="m 59.35,58.83 h -3.56 v -9 h 3.56 z m -3.26,-0.3 h 3 v -8.38 h -3 z"
       class="cls-4"
       inkscape:connector-curvature="0"
       style="fill:#ffffff" />
    <rect
       id="rect24"
       height="11.25"
       width="3.26"
       y="47.43"
       x="48.639999"
       class="cls-3"
       style="fill:#4dbec2" />
    <path
       id="path26"
       d="M 52,58.83 H 48.49 V 47.29 H 52 Z m -3.26,-0.3 h 3 v -11 h -3 z"
       class="cls-4"
       inkscape:connector-curvature="0"
       style="fill:#ffffff" />
    <rect
       id="rect28"
       height="14.45"
       width="3.26"
       y="44.23"
       x="41.330002"
       class="cls-3"
       style="fill:#4dbec2" />
    <path
       id="path30"
       d="M 44.74,58.83 H 41.18 V 44.08 h 3.56 z m -3.26,-0.3 h 3 V 44.38 h -3 z"
       class="cls-4"
       inkscape:connector-curvature="0"
       style="fill:#ffffff" />
    <rect
       id="rect32"
       height="26.719999"
       width="3.26"
       y="31.959999"
       x="34.02"
       class="cls-5"
       style="fill:#27607e" />
    <path
       id="path34"
       d="m 37.43,58.83 h -3.55 v -27 h 3.55 z m -3.26,-0.3 h 3 V 32.11 h -3 z"
       class="cls-4"
       inkscape:connector-curvature="0"
       style="fill:#ffffff" />
    <rect
       id="rect36"
       height="19.309999"
       width="3.26"
       y="39.369999"
       x="26.719999"
       class="cls-5"
       style="fill:#27607e" />
    <path
       id="path38"
       d="M 30.12,58.83 H 26.57 V 39.22 h 3.55 z m -3.25,-0.3 h 3 v -19 h -3 z"
       class="cls-4"
       inkscape:connector-curvature="0"
       style="fill:#ffffff" />
    <rect
       id="rect40"
       height="16.65"
       width="3.26"
       y="42.029999"
       x="19.41"
       class="cls-5"
       style="fill:#27607e" />
    <path
       id="path42"
       d="M 22.82,58.83 H 19.26 V 41.88 h 3.56 z m -3.26,-0.3 h 3 V 42.17 h -3 z"
       class="cls-4"
       inkscape:connector-curvature="0"
       style="fill:#ffffff" />
    <rect
       id="rect44"
       height="8.6000004"
       width="3.26"
       y="50.080002"
       x="12.11"
       class="cls-3"
       style="fill:#4dbec2" />
    <path
       id="path46"
       d="M 15.51,58.83 H 12 v -8.9 h 3.55 z m -3.25,-0.3 h 3 v -8.3 h -3 z"
       class="cls-4"
       inkscape:connector-curvature="0"
       style="fill:#ffffff" />
    <rect
       id="rect48"
       height="10"
       width="3.26"
       y="48.68"
       x="8.4499998"
       class="cls-3"
       style="fill:#4dbec2" />
    <path
       id="path50"
       d="M 11.86,58.83 H 8.31 v -10.3 h 3.55 z M 8.6,58.53 h 3 v -9.7 h -3 z"
       class="cls-4"
       inkscape:connector-curvature="0"
       style="fill:#ffffff" />
    <rect
       id="rect52"
       height="12.47"
       width="3.26"
       y="46.209999"
       x="4.8000002"
       class="cls-3"
       style="fill:#4dbec2" />
    <path
       id="path54"
       d="M 8.21,58.83 H 4.65 V 46.06 H 8.21 Z M 5,58.53 H 8 V 46.36 H 5 Z"
       class="cls-4"
       inkscape:connector-curvature="0"
       style="fill:#ffffff" />
    <rect
       id="rect56"
       height="14.45"
       width="3.26"
       y="44.23"
       x="1.15"
       class="cls-3"
       style="fill:#4dbec2" />
    <path
       id="path58"
       d="M 4.55,58.83 H 1 V 44.08 H 4.55 Z M 1.3,58.53 h 3 V 44.38 h -3 z"
       class="cls-4"
       inkscape:connector-curvature="0"
       style="fill:#ffffff" />
    <rect
       id="rect60"
       height="8.6800003"
       width="3.26"
       y="50"
       x="52.290001"
       class="cls-3"
       style="fill:#4dbec2" />
    <path
       id="path62"
       d="m 55.69,58.83 h -3.55 v -9 h 3.55 z m -3.25,-0.3 h 3 v -8.38 h -3 z"
       class="cls-4"
       inkscape:connector-curvature="0"
       style="fill:#ffffff" />
    <rect
       id="rect64"
       height="14.45"
       width="3.26"
       y="44.23"
       x="44.98"
       class="cls-3"
       style="fill:#4dbec2" />
    <path
       id="path66"
       d="M 48.39,58.83 H 44.83 V 44.08 h 3.56 z m -3.26,-0.3 h 3 V 44.38 h -3 z"
       class="cls-4"
       inkscape:connector-curvature="0"
       style="fill:#ffffff" />
    <rect
       id="rect68"
       height="32.209999"
       width="3.26"
       y="26.469999"
       x="37.68"
       class="cls-5"
       style="fill:#27607e" />
    <path
       id="path70"
       d="M 41.08,58.83 H 37.53 V 26.32 h 3.55 z m -3.25,-0.3 h 3 V 26.62 h -3 z"
       class="cls-4"
       inkscape:connector-curvature="0"
       style="fill:#ffffff" />
    <rect
       id="rect72"
       height="23.18"
       width="3.26"
       y="35.5"
       x="30.370001"
       class="cls-5"
       style="fill:#27607e" />
    <path
       id="path74"
       d="M 33.78,58.83 H 30.22 V 35.35 h 3.56 z m -3.26,-0.3 h 3 V 35.65 h -3 z"
       class="cls-4"
       inkscape:connector-curvature="0"
       style="fill:#ffffff" />
    <rect
       id="rect76"
       height="19.309999"
       width="3.26"
       y="39.369999"
       x="23.07"
       class="cls-5"
       style="fill:#27607e" />
    <path
       id="path78"
       d="M 26.47,58.83 H 22.92 V 39.22 h 3.55 z m -3.26,-0.3 h 3 v -19 h -3 z"
       class="cls-4"
       inkscape:connector-curvature="0"
       style="fill:#ffffff" />
    <rect
       id="rect80"
       height="10"
       width="3.26"
       y="48.68"
       x="15.76"
       class="cls-3"
       style="fill:#4dbec2" />
    <path
       id="path82"
       d="m 19.17,58.83 h -3.56 v -10.3 h 3.56 z m -3.26,-0.3 h 3 v -9.7 h -3 z"
       class="cls-4"
       inkscape:connector-curvature="0"
       style="fill:#ffffff" />
    <rect
       id="rect84"
       height="11.25"
       width="3.26"
       y="47.43"
       x="59.59"
       class="cls-3"
       style="fill:#4dbec2" />
    <path
       id="path86"
       d="M 63,58.83 H 59.45 V 47.29 H 63 Z m -3.26,-0.3 h 3 v -11 h -3 z"
       class="cls-4"
       inkscape:connector-curvature="0"
       style="fill:#ffffff" />
    <rect
       id="rect88"
       height="46.240002"
       width="1.02"
       y="12.53"
       x="18.9"
       class="cls-6"
       style="fill:#666768" />
    <rect
       id="rect90"
       height="46.240002"
       width="1.02"
       y="12.53"
       x="40.82"
       class="cls-6"
       style="fill:#666768" />
    <path
       id="path92"
       d="m 16.62,41.7 a 0.42,0.42 0 0 1 -0.42,0.42 v 0 A 0.42,0.42 0 0 1 15.78,41.7 v -4.65 a 0.42,0.42 0 0 1 0.42,-0.43 v 0 a 0.42,0.42 0 0 1 0.42,0.43 z"
       class="cls-7"
       inkscape:connector-curvature="0"
       style="fill:#9a9a9a" />
    <path
       id="path94"
       d="m 45.41,41.7 a 0.42,0.42 0 0 1 -0.43,0.42 v 0 A 0.42,0.42 0 0 1 44.56,41.7 v -4.65 a 0.42,0.42 0 0 1 0.42,-0.43 v 0 a 0.43,0.43 0 0 1 0.43,0.43 z"
       class="cls-7"
       inkscape:connector-curvature="0"
       style="fill:#9a9a9a" />
  </g>
</svg>
