<?xml version="1.0" encoding="UTF-8" standalone="no"?>
<svg
   xmlns:dc="http://purl.org/dc/elements/1.1/"
   xmlns:cc="http://creativecommons.org/ns#"
   xmlns:rdf="http://www.w3.org/1999/02/22-rdf-syntax-ns#"
   xmlns:svg="http://www.w3.org/2000/svg"
   xmlns="http://www.w3.org/2000/svg"
   xmlns:sodipodi="http://sodipodi.sourceforge.net/DTD/sodipodi-0.dtd"
   xmlns:inkscape="http://www.inkscape.org/namespaces/inkscape"
   id="Layer_1"
   data-name="Layer 1"
   viewBox="0 0 64 64"
   version="1.1"
   sodipodi:docname="icon_wiki_viewer.svg"
   inkscape:version="0.92.3 (unknown)">
  <metadata
     id="metadata16">
    <rdf:RDF>
      <cc:Work
         rdf:about="">
        <dc:format>image/svg+xml</dc:format>
        <dc:type
           rdf:resource="http://purl.org/dc/dcmitype/StillImage" />
      </cc:Work>
    </rdf:RDF>
  </metadata>
  <sodipodi:namedview
     pagecolor="#ffffff"
     bordercolor="#666666"
     borderopacity="1"
     objecttolerance="10"
     gridtolerance="10"
     guidetolerance="10"
     inkscape:pageopacity="0"
     inkscape:pageshadow="2"
     inkscape:window-width="1557"
     inkscape:window-height="1176"
     id="namedview14"
     showgrid="false"
     inkscape:zoom="3.6875"
     inkscape:cx="37.413243"
     inkscape:cy="32"
     inkscape:window-x="43"
     inkscape:window-y="24"
     inkscape:window-maximized="1"
     inkscape:current-layer="Layer_1" />
  <defs
     id="defs4">
    <style
       id="style2">.cls-1{fill:#27607e;}</style>
  </defs>
  <title
     id="title6">Icon</title>
  <g
     id="g21"
     transform="matrix(1.1851852,0,0,1.1851852,-6.1866671,-5.9259264)">
    <g
       id="y2opAx.tif">
      <path
         id="path8"
         d="m 14.11,20.12 a 4.87,4.87 0 0 1 0.55,-0.06 h 7.72 c 0.57,0 0.75,0.25 0.57,0.79 a 0.39,0.39 0 0 1 -0.19,0.19 2.05,2.05 0 0 1 -0.54,0.1 c -0.43,0 -0.86,0 -1.3,0.08 a 0.71,0.71 0 0 0 -0.71,1 6.07,6.07 0 0 0 0.33,1 c 0.79,2 1.58,3.93 2.39,5.88 0.81,1.95 1.58,3.79 2.38,5.68 0.8,1.89 1.51,3.56 2.28,5.33 a 0.73,0.73 0 0 0 0.21,0.22 c 0.06,-0.07 0.16,-0.13 0.2,-0.21 1.1,-2.42 2.19,-4.84 3.31,-7.25 a 1,1 0 0 0 0,-0.92 c -0.82,-1.77 -1.61,-3.56 -2.41,-5.34 -0.6,-1.32 -1.21,-2.64 -1.82,-4 -0.11,-0.25 -0.24,-0.49 -0.37,-0.72 a 1.38,1.38 0 0 0 -1.14,-0.77 0.65,0.65 0 0 1 -0.6,-1 c 0,-0.06 0.19,-0.11 0.29,-0.11 h 5.87 c 0.2,0 0.27,0.07 0.26,0.27 0,0.92 0.14,0.74 -0.75,0.9 -0.51,0.1 -0.71,0.39 -0.54,0.9 0.17,0.51 0.4,1 0.63,1.55 0.72,1.63 1.45,3.25 2.17,4.88 l 0.18,0.36 c 0.2,-0.43 0.38,-0.8 0.54,-1.17 q 1.13,-2.49 2.24,-5 a 2,2 0 0 0 0.13,-0.41 c 0.14,-0.66 -0.08,-1 -0.74,-1.12 L 34.5,21.08 c -0.2,0 -0.29,-0.11 -0.29,-0.34 0,-0.75 0,-0.75 0.76,-0.75 h 4.94 c 0.25,0 0.34,0.06 0.34,0.33 0,0.79 0,0.76 -0.72,0.79 a 1.27,1.27 0 0 0 -1.11,0.76 c -0.69,1.31 -1.39,2.62 -2.06,3.94 -0.67,1.32 -1.36,2.87 -2.05,4.28 -0.38,0.77 -0.38,0.76 0,1.54 0.72,1.57 1.41,3.16 2.11,4.74 0.56,1.26 1.12,2.52 1.69,3.77 0,0.1 0.17,0.16 0.26,0.23 a 1.37,1.37 0 0 0 0.18,-0.24 L 42,31.07 q 1.51,-3.94 3,-7.91 a 1.41,1.41 0 0 0 0,-1.43 1.23,1.23 0 0 0 -0.84,-0.51 c -0.29,0 -0.58,0 -0.87,-0.07 -0.29,-0.07 -0.31,0 -0.46,0 a 0.64,0.64 0 0 1 -0.5,-0.9 0.26,0.26 0 0 1 0.17,-0.11 3.38,3.38 0 0 1 0.6,-0.14 h 7.23 v 1 a 4.44,4.44 0 0 1 -0.6,0.16 3.12,3.12 0 0 0 -1.76,0.63 3.47,3.47 0 0 0 -1,1.46 c -1.21,3 -2.4,6.07 -3.62,9.1 -1.22,3.03 -2.46,6.11 -3.69,9.16 -0.32,0.78 -0.61,1.58 -1,2.35 a 4.32,4.32 0 0 1 -0.59,1 0.65,0.65 0 0 1 -1.14,0 10,10 0 0 1 -0.84,-1.54 c -0.62,-1.42 -1.22,-2.85 -1.82,-4.28 -0.6,-1.43 -1.17,-2.82 -1.76,-4.24 0,-0.07 -0.07,-0.14 -0.14,-0.27 l -0.35,0.74 c -0.88,2 -1.75,4 -2.65,5.94 -0.5,1.09 -1.05,2.16 -1.59,3.24 A 1.54,1.54 0 0 1 27.37,44.96 0.69,0.69 0 0 1 26.21,44.8 9,9 0 0 1 25.59,43.56 C 24.64,41.28 23.7,38.99 22.75,36.71 21.87,34.6 20.98,32.51 20.09,30.4 q -1,-2.52 -2.09,-5 C 17.55,24.34 17.12,23.27 16.68,22.2 A 1.47,1.47 0 0 0 15.45,21.28 L 14.11,21 Z"
         class="cls-1"
         inkscape:connector-curvature="0"
         style="fill:#27607e" />
    </g>
    <path
       id="path11"
       d="m 47.7,59 h -31 A 11.54,11.54 0 0 1 5.22,47.48 v -31 A 11.54,11.54 0 0 1 16.74,5 h 31 a 11.54,11.54 0 0 1 11.48,11.52 v 31 A 11.54,11.54 0 0 1 47.7,59 Z m -31,-49 a 6.5,6.5 0 0 0 -6.5,6.5 v 31 a 6.5,6.5 0 0 0 6.5,6.5 h 31 a 6.5,6.5 0 0 0 6.5,-6.5 v -31 A 6.5,6.5 0 0 0 47.7,10 Z"
       class="cls-1"
       inkscape:connector-curvature="0"
       style="fill:#27607e" />
  </g>
</svg>
