<?xml version="1.0" encoding="utf-8"?>
<!-- Generator: Adobe Illustrator 22.1.0, SVG Export Plug-In . SVG Version: 6.00 Build 0)  -->
<svg version="1.1" id="Layer_4" xmlns="http://www.w3.org/2000/svg" xmlns:xlink="http://www.w3.org/1999/xlink" x="0px" y="0px"
	 viewBox="0 0 35 35" style="enable-background:new 0 0 35 35;" xml:space="preserve">
<style type="text/css">
	.st0{fill:#666666;}
</style>
<path class="st0" d="M4.4,30.6H35V35H0V0h4.4V30.6z M9.8,28.4c-1.8,0-3.3-1.5-3.3-3.3c0-1.8,1.5-3.3,3.3-3.3h0.3l3.5-5.9
	c-1-1.5-0.6-3.6,0.9-4.6s3.6-0.6,4.6,0.9c0.7,1.1,0.7,2.5,0,3.6l3.5,5.9h0.5L29,11.7c-0.4-0.5-0.6-1.2-0.6-1.9
	c0-1.8,1.5-3.3,3.3-3.3S35,8,35,9.8s-1.5,3.3-3.3,3.3h-0.2l-5.8,10.2c0.4,0.5,0.6,1.2,0.6,1.9c0,1.8-1.4,3.3-3.2,3.3
	c-1.8,0-3.3-1.4-3.3-3.2c0-0.7,0.2-1.3,0.6-1.9l-3.5-5.9h-0.6l-3.5,5.9c1,1.5,0.6,3.6-1,4.6C11.1,28.3,10.5,28.4,9.8,28.4L9.8,28.4z
	"/>
</svg>
