<?xml version="1.0" encoding="utf-8"?>
<!-- Generator: Adobe Illustrator 22.1.0, SVG Export Plug-In . SVG Version: 6.00 Build 0)  -->
<svg version="1.1" id="Layer_1" xmlns="http://www.w3.org/2000/svg" xmlns:xlink="http://www.w3.org/1999/xlink" x="0px" y="0px"
	 viewBox="0 0 35 26.2" style="enable-background:new 0 0 35 26.2;" xml:space="preserve">
<style type="text/css">
	.st0{fill:#666666;}
</style>
<path class="st0" d="M30.6,4.4V0H0v24.1c0,1.2,1,2.2,2.2,2.2c0,0,0,0,0,0h29.5c1.8,0,3.3-1.5,3.3-3.3c0,0,0,0,0,0V4.4H30.6z
	 M28.4,24.1H2.2V2.2h26.2V24.1z M4.4,6.6h21.9v2.2H4.4V6.6z M17.5,10.9h8.8v2.2h-8.8V10.9z M17.5,15.3h8.8v2.2h-8.8V15.3z
	 M17.5,19.7h6.6v2.2h-6.6V19.7z M4.4,10.9h10.9v10.9H4.4V10.9z"/>
</svg>
