<?xml version="1.0" encoding="utf-8"?>
<!-- Generator: Adobe Illustrator 22.1.0, SVG Export Plug-In . SVG Version: 6.00 Build 0)  -->
<svg version="1.1" id="Layer_12" xmlns="http://www.w3.org/2000/svg" xmlns:xlink="http://www.w3.org/1999/xlink" x="0px" y="0px"
	 viewBox="0 0 35 30" style="enable-background:new 0 0 35 30;" xml:space="preserve">
<style type="text/css">
	.st0{fill:#666666;}
</style>
<path class="st0" d="M32,0H3C1.3,0,0,1.3,0,3v24c0,1.7,1.3,3,3,3h29c1.7,0,3-1.3,3-3V3C35,1.3,33.7,0,32,0z M11.1,27.8H2.3v-6.2h8.8
	V27.8z M11.1,19.6H2.3v-6.2h8.8V19.6z M11.1,11.4H2.3V5.1h8.8V11.4z M22,27.8h-8.7v-6.2H22V27.8z M22,19.6h-8.7v-6.2H22V19.6z
	 M22,11.4h-8.7V5.1H22V11.4z M32.9,27.8h-8.7v-6.2h8.8L32.9,27.8z M32.9,19.6h-8.7v-6.2h8.8L32.9,19.6z M32.9,11.4h-8.7V5.1h8.8
	L32.9,11.4z"/>
</svg>
