<?xml version="1.0" encoding="utf-8"?>
<!-- Generator: Adobe Illustrator 22.1.0, SVG Export Plug-In . SVG Version: 6.00 Build 0)  -->
<svg version="1.1" id="Layer_2_1_" xmlns="http://www.w3.org/2000/svg" xmlns:xlink="http://www.w3.org/1999/xlink" x="0px" y="0px"
	 viewBox="0 0 35 35" style="enable-background:new 0 0 35 35;" xml:space="preserve">
<style type="text/css">
	.st0{fill:#666666;}
</style>
<path class="st0" d="M29.5,24.1c-1.5,0-2.9,0.6-3.9,1.7l-14.7-7.4c0.1-0.6,0.1-1.2,0-1.7l14.7-7.4c2.1,2.2,5.6,2.2,7.7,0.1
	c2.2-2.1,2.2-5.6,0.1-7.7s-5.6-2.2-7.7-0.1c-1.1,1-1.7,2.5-1.7,3.9c0,0.3,0,0.6,0.1,0.9L9.4,13.7c-2.1-2.2-5.6-2.2-7.7-0.1
	s-2.2,5.6-0.1,7.7s5.6,2.2,7.7,0.1c0,0,0.1-0.1,0.1-0.1l14.7,7.4c0,0.3-0.1,0.6-0.1,0.9c0,3,2.4,5.5,5.5,5.5c3,0,5.5-2.4,5.5-5.5
	C35,26.5,32.6,24.1,29.5,24.1C29.5,24.1,29.5,24.1,29.5,24.1z"/>
</svg>
