<?xml version="1.0" encoding="utf-8"?>
<!-- Generator: Adobe Illustrator 22.1.0, SVG Export Plug-In . SVG Version: 6.00 Build 0)  -->
<svg version="1.1" id="Layer_10" xmlns="http://www.w3.org/2000/svg" xmlns:xlink="http://www.w3.org/1999/xlink" x="0px" y="0px"
	 viewBox="0 0 35 35" style="enable-background:new 0 0 35 35;" xml:space="preserve">
<style type="text/css">
	.st0{fill:#666666;}
</style>
<path class="st0" d="M25,8.8V1.2C25,0.6,24.4,0,23.8,0H1.2C0.6,0,0,0.6,0,1.2v7.5C0,9.4,0.6,10,1.2,10h22.5C24.4,10,25,9.4,25,8.8z
	 M2.5,8.8V1.2h10v7.5H2.5z M30,21.2v-7.5c0-0.7-0.6-1.2-1.2-1.2H1.2c-0.7,0-1.2,0.6-1.2,1.2v7.5c0,0.7,0.6,1.2,1.2,1.2h27.5
	C29.4,22.5,30,21.9,30,21.2z M2.5,21.2v-7.5H15v7.5H2.5z M35,33.8v-7.5c0-0.7-0.6-1.2-1.2-1.2H1.2C0.6,25,0,25.6,0,26.2v7.5
	C0,34.4,0.6,35,1.2,35h32.5C34.4,35,35,34.4,35,33.8z M2.5,33.8v-7.5h15v7.5H2.5z"/>
</svg>
