<?xml version="1.0" encoding="utf-8"?>
<!-- Generator: Adobe Illustrator 22.1.0, SVG Export Plug-In . SVG Version: 6.00 Build 0)  -->
<svg version="1.1" id="Layer_5" xmlns="http://www.w3.org/2000/svg" xmlns:xlink="http://www.w3.org/1999/xlink" x="0px" y="0px"
	 viewBox="0 0 30.6 35" style="enable-background:new 0 0 30.6 35;" xml:space="preserve">
<style type="text/css">
	.st0{fill:#FFFFFF;}
</style>
<path class="st0" d="M29.2,7.8c-0.9-1.2-1.9-2.3-3-3.4s-2.2-2.1-3.4-3C21,0.2,20.2,0,19.7,0h-17C1.2,0,0,1.2,0,2.7v29.5
	C0,33.8,1.2,35,2.7,35h25.2c1.5,0,2.7-1.2,2.7-2.7l0,0V10.9C30.6,10.4,30.5,9.6,29.2,7.8z M24.6,6c0.9,0.9,1.7,1.8,2.5,2.8h-5.3V3.5
	C22.8,4.3,23.8,5.1,24.6,6z M28.4,32.3c0,0.3-0.2,0.5-0.5,0.5H2.7c-0.3,0-0.5-0.2-0.6-0.5V2.7c0-0.3,0.3-0.5,0.6-0.5h17v7.7
	c0,0.6,0.5,1.1,1.1,1.1l0,0h7.6L28.4,32.3z"/>
<path class="st0" d="M23,28.4H7.7c-0.6-0.1-1-0.6-1-1.2c0.1-0.5,0.5-0.9,1-1H23c0.6,0.1,1,0.6,1,1.2C23.9,28,23.5,28.4,23,28.4z"/>
<path class="st0" d="M23,24.1H7.7c-0.6-0.1-1-0.6-1-1.2c0.1-0.5,0.5-0.9,1-1H23c0.6,0.1,1,0.6,1,1.2C23.9,23.6,23.5,24,23,24.1z"/>
<path class="st0" d="M23,19.7H7.7c-0.6-0.1-1-0.6-1-1.2c0.1-0.5,0.5-0.9,1-1H23c0.6,0.1,1,0.6,1,1.2C23.9,19.2,23.5,19.6,23,19.7z"
	/>
</svg>
