<?xml version="1.0" encoding="utf-8"?>
<!-- Generator: Adobe Illustrator 22.1.0, SVG Export Plug-In . SVG Version: 6.00 Build 0)  -->
<svg version="1.1" id="Layer_15" xmlns="http://www.w3.org/2000/svg" xmlns:xlink="http://www.w3.org/1999/xlink" x="0px" y="0px"
	 viewBox="0 0 34.8 34.8" style="enable-background:new 0 0 34.8 34.8;" xml:space="preserve">
<style type="text/css">
	.st0{fill:#FFFFFF;}
</style>
<title>taxonomy_viewer</title>
<path class="st0" d="M1,0h25c0.6,0,1,0.4,1,1v7.1c0,0.6-0.4,1-1,1H1c-0.6,0-1-0.4-1-1V1C0,0.4,0.4,0,1,0z"/>
<path class="st0" d="M8.8,12.8h25c0.6,0,1,0.4,1,1v7.1c0,0.6-0.4,1-1,1h-25c-0.6,0-1-0.4-1-1v-7.1C7.8,13.2,8.3,12.8,8.8,12.8z"/>
<path class="st0" d="M8.8,25.6h25c0.6,0,1,0.4,1,1v7.1c0,0.6-0.4,1-1,1h-25c-0.6,0-1-0.4-1-1v-7.1C7.8,26,8.3,25.6,8.8,25.6z"/>
<rect x="3.1" y="8.8" class="st0" width="1.6" height="21.8"/>
<rect x="4.1" y="29.1" class="st0" width="4.3" height="1.6"/>
<rect x="4.1" y="16.8" class="st0" width="4.3" height="1.6"/>
</svg>
