<?xml version="1.0" encoding="utf-8"?>
<!-- Generator: Adobe Illustrator 22.1.0, SVG Export Plug-In . SVG Version: 6.00 Build 0)  -->
<svg version="1.1" id="Layer_11" xmlns="http://www.w3.org/2000/svg" xmlns:xlink="http://www.w3.org/1999/xlink" x="0px" y="0px"
	 viewBox="0 0 35 19.7" style="enable-background:new 0 0 35 19.7;" xml:space="preserve">
<style type="text/css">
	.st0{fill:#FFFFFF;}
</style>
<path class="st0" d="M15.3,12.3c-1,0.1-1.8,0.9-1.8,1.9h3.4c0.1-0.9-0.5-1.7-1.4-1.9C15.4,12.3,15.4,12.3,15.3,12.3z"/>
<path class="st0" d="M35,13.7c0-2.7-1.9-5.1-4.5-5.8c-0.1-4.5-3.8-8-8.3-7.9c-2.4,0.1-4.7,1.2-6.2,3.1c-1.5-2-4.4-2.4-6.4-0.8
	C8.4,3.1,7.8,4.5,7.8,5.9c0,0.2,0,0.4,0,0.6C7.4,6.5,7,6.4,6.6,6.4c-3.7,0.1-6.5,3.2-6.4,6.9c0.1,3.5,2.9,6.2,6.4,6.4H29
	C32.3,19.7,35,17,35,13.7L35,13.7z M10.1,18H9v-7.9H6.3v-1h6.5v1h-2.7V18z M18,15h-4.5c-0.1,1.1,0.7,2.1,1.8,2.2c0.1,0,0.3,0,0.4,0
	c0.6,0,1.2-0.1,1.8-0.3l0.2,0.8c-0.7,0.3-1.4,0.4-2.1,0.4c-1.7,0.1-3.1-1.2-3.1-2.9c0-0.1,0-0.2,0-0.3c0-1.9,1.1-3.4,3-3.4
	c2.1,0,2.6,1.8,2.6,3C18,14.7,18,14.9,18,15L18,15z M23,18l-0.9-1.4c-0.2-0.4-0.5-0.7-0.7-1.1l0,0c-0.2,0.4-0.4,0.7-0.7,1.1L19.8,18
	h-1.3l2.3-3.2l-2.1-3.1H20l0.9,1.4c0.2,0.4,0.4,0.7,0.6,1l0,0c0.2-0.4,0.4-0.7,0.6-1l0.9-1.4h1.3l-2.2,3.1l2.2,3.3L23,18z
	 M28.7,12.6H27V16c0,0.8,0.2,1.2,0.9,1.2c0.2,0,0.5,0,0.7-0.1V18c-0.3,0.1-0.7,0.2-1,0.1c-0.5,0-0.9-0.1-1.2-0.5
	c-0.4-0.5-0.5-1.1-0.5-1.6v-3.5h-1v-0.9h1v-1.5L27,9.9v1.8h1.6L28.7,12.6z"/>
</svg>
