<?xml version="1.0" encoding="utf-8"?>
<!-- Generator: Adobe Illustrator 22.1.0, SVG Export Plug-In . SVG Version: 6.00 Build 0)  -->
<svg version="1.1" id="Layer_1" xmlns="http://www.w3.org/2000/svg" xmlns:xlink="http://www.w3.org/1999/xlink" x="0px" y="0px"
	 viewBox="0 0 50 36" style="enable-background:new 0 0 50 36;" xml:space="preserve">
<style type="text/css">
	.st0{fill:#FFFFFF;}
</style>
<title>Icon</title>
<path class="st0" d="M1.5,19h12.3c0.9,0,1.5,0.7,1.5,1.5v14c0,0.9-0.7,1.5-1.5,1.5H1.5C0.7,36,0,35.4,0,34.5v-14
	C0,19.7,0.7,19,1.5,19z"/>
<path class="st0" d="M18.8,19h12.3c0.9,0,1.5,0.7,1.5,1.5v14c0,0.9-0.7,1.5-1.5,1.5H18.8c-0.9,0-1.5-0.7-1.5-1.5v-14
	C17.3,19.7,18,19,18.8,19z"/>
<path class="st0" d="M36.2,19h12.3c0.9,0,1.5,0.7,1.5,1.5v14c0,0.9-0.7,1.5-1.5,1.5H36.2c-0.9,0-1.5-0.7-1.5-1.5v-14
	C34.6,19.7,35.3,19,36.2,19z"/>
<path class="st0" d="M1.5,0h12.3c0.9,0,1.5,0.7,1.5,1.5v14c0,0.9-0.7,1.5-1.5,1.5H1.5C0.7,17,0,16.4,0,15.5v-14C0,0.7,0.7,0,1.5,0z"
	/>
<path class="st0" d="M18.8,0h12.3c0.9,0,1.5,0.7,1.5,1.5v14c0,0.9-0.7,1.5-1.5,1.5H18.8c-0.9,0-1.5-0.7-1.5-1.5v-14
	C17.3,0.7,18,0,18.8,0z"/>
<path class="st0" d="M36.2,0h12.3C49.3,0,50,0.7,50,1.5v14c0,0.9-0.7,1.5-1.5,1.5H36.2c-0.9,0-1.5-0.7-1.5-1.5v-14
	C34.6,0.7,35.3,0,36.2,0z"/>
</svg>
