<?xml version="1.0" encoding="utf-8"?>
<!-- Generator: Adobe Illustrator 22.1.0, SVG Export Plug-In . SVG Version: 6.00 Build 0)  -->
<svg version="1.1" id="Layer_13" xmlns="http://www.w3.org/2000/svg" xmlns:xlink="http://www.w3.org/1999/xlink" x="0px" y="0px"
	 viewBox="0 0 35 22.2" style="enable-background:new 0 0 35 22.2;" xml:space="preserve">
<style type="text/css">
	.st0{fill:#FFFFFF;}
</style>
<path class="st0" d="M35,0.4c0,0.1,0,0.2-0.1,0.3s-0.2,0.1-0.3,0.2c-0.7,0-1.3,0.3-1.9,0.7C32,2.3,31.5,3.1,31.2,4l-7.9,17.9
	c0,0.2-0.2,0.2-0.4,0.2c-0.2,0-0.3-0.1-0.4-0.2L18,12.6l-5.1,9.3c-0.1,0.2-0.3,0.2-0.4,0.2c-0.2,0-0.4-0.1-0.4-0.2L4.1,4
	C3.8,3.1,3.3,2.3,2.6,1.7C1.9,1.2,1.2,0.9,0.3,0.9c-0.1,0-0.2-0.1-0.2-0.1C0,0.7,0,0.6,0,0.4S0.1,0,0.2,0c0.7,0,1.4,0,2.2,0.1
	s1.4,0.1,2,0.1s1.4,0,2.2-0.1S8.4,0,9.1,0c0.2,0,0.2,0.2,0.2,0.4s0,0.5-0.1,0.5C8.6,0.9,8,1.1,7.5,1.4C7.1,1.7,6.9,2.1,6.9,2.6
	c0,0.3,0.1,0.6,0.2,0.9l6.4,14.6l3.7-6.9L13.9,4c-0.4-0.9-0.9-1.7-1.5-2.4c-0.5-0.4-1.1-0.7-1.8-0.7c-0.1,0-0.2-0.1-0.2-0.1
	c-0.1-0.1-0.1-0.2-0.1-0.3c0-0.3,0.1-0.4,0.2-0.4c0.6,0,1.3,0,1.9,0.1c0.6,0.1,1.2,0.1,1.8,0.1s1.3,0,2-0.1C16.9,0.1,17.6,0,18.3,0
	c0.2,0,0.2,0.2,0.2,0.4s0,0.4-0.2,0.4c-1.3,0.2-2,0.6-2,1.3c0.1,0.5,0.2,1,0.5,1.4L19,8.1l2.2-4.2c0.3-0.5,0.4-1,0.5-1.5
	c0-1-0.7-1.5-2.1-1.5c-0.1,0-0.2-0.1-0.2-0.4c0-0.1,0-0.2,0.1-0.3C19.6,0.1,19.7,0,19.7,0c0.5,0,1.1,0,1.8,0.1s1.3,0.1,1.7,0.1
	s0.8,0,1.4-0.1C25.4,0,26.1,0,26.6,0c0.1,0,0.2,0.1,0.2,0.4s-0.1,0.5-0.3,0.5c-0.7,0-1.4,0.3-2,0.7c-0.8,0.7-1.4,1.5-1.8,2.5l-3,5.5
	l4.1,8.2l6-13.9C29.9,3.4,30,3,30,2.5c0-1-0.7-1.6-2.1-1.6c-0.1,0-0.2-0.2-0.2-0.4S27.9,0,28.1,0c0.5,0,1.1,0,1.8,0.1
	s1.2,0.1,1.6,0.1s1,0,1.6-0.1S34.3,0,34.8,0C34.9,0,35,0.1,35,0.4L35,0.4z"/>
</svg>
