<?xml version="1.0" encoding="UTF-8" standalone="no"?>
<svg
   xmlns:dc="http://purl.org/dc/elements/1.1/"
   xmlns:cc="http://creativecommons.org/ns#"
   xmlns:rdf="http://www.w3.org/1999/02/22-rdf-syntax-ns#"
   xmlns:svg="http://www.w3.org/2000/svg"
   xmlns="http://www.w3.org/2000/svg"
   xmlns:sodipodi="http://sodipodi.sourceforge.net/DTD/sodipodi-0.dtd"
   xmlns:inkscape="http://www.inkscape.org/namespaces/inkscape"
   id="Layer_1"
   data-name="Layer 1"
   viewBox="0 0 64 64"
   version="1.1"
   sodipodi:docname="icon_dataset_connector.svg"
   inkscape:version="0.92.3 (unknown)">
  <metadata
     id="metadata23">
    <rdf:RDF>
      <cc:Work
         rdf:about="">
        <dc:format>image/svg+xml</dc:format>
        <dc:type
           rdf:resource="http://purl.org/dc/dcmitype/StillImage" />
      </cc:Work>
    </rdf:RDF>
  </metadata>
  <sodipodi:namedview
     pagecolor="#ffffff"
     bordercolor="#666666"
     borderopacity="1"
     objecttolerance="10"
     gridtolerance="10"
     guidetolerance="10"
     inkscape:pageopacity="0"
     inkscape:pageshadow="2"
     inkscape:window-width="1557"
     inkscape:window-height="1176"
     id="namedview21"
     showgrid="false"
     inkscape:zoom="3.6875"
     inkscape:cx="32"
     inkscape:cy="32"
     inkscape:window-x="43"
     inkscape:window-y="24"
     inkscape:window-maximized="1"
     inkscape:current-layer="Layer_1" />
  <defs
     id="defs4">
    <style
       id="style2">.cls-1{fill:#fff;}</style>
  </defs>
  <title
     id="title6">Icon</title>
  <g
     id="g31"
     transform="matrix(1.8740451,0,0,1.8779343,-27.84831,-27.981222)">
    <path
       id="path8"
       d="m 45.53,31.78 a 10,10 0 0 0 -6.2,-2.22 9.78,9.78 0 0 0 -9.77,9.77 9.63,9.63 0 0 0 0.58,3.28 9.44,9.44 0 0 0 1.43,2.63 9.76,9.76 0 1 0 14,-13.46 z m 0.52,9.27 H 41 v 5 h -3.36 v -5 h -5 V 37.6 h 5 v -5 H 41 v 5 h 5 z"
       class="cls-1"
       inkscape:connector-curvature="0"
       style="fill:#ffffff" />
    <path
       id="path10"
       d="m 19.94,26.81 a 20.44,20.44 0 0 0 6.3,1.56 24.74,24.74 0 0 0 9.57,-0.78 21.65,21.65 0 0 0 3.68,-1.49 6.29,6.29 0 0 0 3.64,-4.23 V 21.54 C 42.38,18.63 40.05,17.42 37.57,16.4 A 20.76,20.76 0 0 0 31.24,15 4.1,4.1 0 0 1 30.76,14.9 h -3.49 c -1.05,0.15 -2.11,0.27 -3.15,0.46 a 17.78,17.78 0 0 0 -5.54,1.91 6.55,6.55 0 0 0 -3.68,4.27 v 0.33 c 0.65,2.7 2.76,3.92 5.04,4.94 z"
       class="cls-1"
       inkscape:connector-curvature="0"
       style="fill:#ffffff" />
    <path
       id="path12"
       d="m 28.3,36.5 a 25.52,25.52 0 0 1 -7.47,-1.24 13.86,13.86 0 0 1 -5.93,-3.6 v 3.93 a 6.6,6.6 0 0 0 3.56,4.1 20,20 0 0 0 7.8,2.31 c 0.68,0.07 1.35,0.11 2,0.13 A 11.57,11.57 0 0 1 27.91,39.35 11.43,11.43 0 0 1 28.3,36.5 Z"
       class="cls-1"
       inkscape:connector-curvature="0"
       style="fill:#ffffff" />
    <path
       id="path14"
       d="M 28.73,43.5 A 24.8,24.8 0 0 1 19,41.56 11.33,11.33 0 0 1 15.13,38.91 1.78,1.78 0 0 0 14.86,38.74 v 3.71 a 6.58,6.58 0 0 0 3.57,4.1 20.32,20.32 0 0 0 8.09,2.32 c 0.24,0 0.47,0.07 0.71,0.11 h 3.49 l 2.07,-0.29 A 11.4,11.4 0 0 1 28.73,43.5 Z"
       class="cls-1"
       inkscape:connector-curvature="0"
       style="fill:#ffffff" />
    <path
       id="path16"
       d="m 43.1,28.58 v -0.07 -3.38 c -0.39,0.35 -0.77,0.71 -1.17,1 a 14.27,14.27 0 0 1 -2.86,1.77 h 0.23 a 11.48,11.48 0 0 1 3.8,0.68 z"
       class="cls-1"
       inkscape:connector-curvature="0"
       style="fill:#ffffff" />
    <path
       id="path18"
       d="M 33.49,29.55 A 27.46,27.46 0 0 1 21.77,29 13.9,13.9 0 0 1 15.09,25.29 0.76,0.76 0 0 0 14.9,25.17 v 3.49 c 0.62,2.29 2.35,3.54 4.34,4.47 a 22.09,22.09 0 0 0 9.5,2 11.49,11.49 0 0 1 4.75,-5.58 z"
       class="cls-1"
       inkscape:connector-curvature="0"
       style="fill:#ffffff" />
  </g>
</svg>
